/* XPM */
static char *be518849308b4be4ec46a5f73777d538VQU76AUTY09SeCl3[] = {
/* columns rows colors chars-per-pixel */
"128 128 16 1 ",
"  c #BCB99B",
". c #A88B60",
"X c #98673C",
"o c #7C4C2A",
"O c #884320",
"+ c #924D28",
"@ c #71351A",
"# c #3F1A0A",
"$ c #5C230F",
"% c #8A381A",
"& c #6A2510",
"* c #571A0A",
"= c #822812",
"- c #772611",
"; c #671A0A",
": c #771B0C",
/* pixels */
"&;;;**###*******###*;;:::XX.X;;*;****####******&;;;&==+%%%=::%++&+. .+%;;;;&:=:+%..X%==;;=:===%==:::::;:;&=XO;%;:+:;**;****&*;&;",
"*;;:;**#####****#*#**:;;:..X.;;;*****#*##;&******&:==:=%%%%:-:=%&@X.. .=&&*&;&:+X .+o=+;&&:==:=====;::=:&@X%=:=+%;:;;;*;;*;@@;;;",
";;%:&;;*####***#*##**;:;=X.X.***;*****###@%@&*#**;;===%%=%%:::%+&;@. ..o=;;&&&&.+.Xo+=:::::==:%==:::::=;;&+%%=o@X;:;;*;;*&@;;;;*",
"**;;;;;;;*####*#*#;;;*;;;.X.X&***;*;**##*@&@@*##***;;::==:=-:-:%@&$@+  +o&;;&&%XX.X.o%.;:=::=====:::+X+:;:@=:;;:;;;;;***;&;;;*;;",
";;;;;;;;;**#####*#;;;*;;*XXX.%**********#&&&&*******;;:====:%:-=--&&oX XX&&&&&%.X..X =o::@:%::====:=X%%;:;::&;;:::;;;**&&*;;;;**",
";;;;;;*&;;;;#####;;O%;:*#%.+.+%****;******@;@@&*#*#****:=:-=--:=-@&;*o. +@&&&&=+XX.o%&%=:::::::=&=:=%%=:&;=::;:=+===&@&@;;*;;;**",
";;;;*;;&;*;*;####%::%::**@X...+@;*;;;***#*&*&*&#***$**$;:---:::=--&&@@oXoo@;&=@o...o==;=::::::%=:=::%%=;&;=:::=&X;:&;&@;*;;***;*",
";;;*;********;*#*;;::=:***@.XX.XX%=&;@;****%@#**#****$;&-%%==%-:--:&&&&$o@o*;;:oX.Xo=&:=:=:+%:=:::;:&+%;:=;::+%=%::;;;;;;;*;**;*",
"&;;;***;**;;;;;*#;;;:::***&XX....X+;;=;;*#*@&***#***&**;;OO=%@=:-==&;;;;@@%&&@@+XXoo=&;=:::%=:=;::::%.+::%%::%&:::::;&=;;;;;;;*&",
";;;*******;;;;****;&:::;***;%X+.XX++&X=;;*#&&#*******;;;:-:===:&@%=&;;-;;****&@X..Xo=;;::::==;;;;::=.%%::=&:::=+X=:::;;;;;;;&*;;",
";:;********;;;;;*#;;;=;;;;***++X++X==X%:;************;&:&-;::&:==+%-;*;;;****@@o.oXo&&;::=:::;;;;:;&+X+:=+%==:+.+X::;;;;;;;;;;;;",
";;*&*@o&@**&%&;*;*#;:::&+*;**&**;&*::;:;;;******&*#;***:;-::::@%@O%-&;*;;;;**@@%XXX.@;&::=::=;;;;:;;&%%:::%%:=:=++=::;:;&***;;&;",
":;*&*oo&;&;&&;;;;*#;;:;*%;;**;**###;;;:;;;************:;:::;@=%+=;%@$*;;;;;**#@@o..X@*;::::=%;;;:&;&;+%::+o=:=X%++=:;=:;&;*&@;;:",
"=;*;;oooo;@;&&;;;X+*;;;;*%@&;;;&&#**;:;;;;**#*&**@**;**&;::-=&&+=:=%*;$;;;**;**@@.Xo=*:::::::;;;&:;@;====+X:::=%=++=%@=&&;*oo;:=",
"=@@*&&;&&%%+%@&*=.X#*;*;;*%;*;;*****;::;;;****@;*&&***;;:::&==@Xo%=O&*#;;;;**;;&&ooo&;&::::::;;:o:;;;%=:=@+%=;:%%X %%%=%.&&+@;:&",
"X@@@&*;@@;@;;;;;*++##***;;;%&;*&@***;;:;;;****&*&;@**%&=-;;:&&%X%*=%=$#;;;;&;*;;&*&&;*;::::;;;;=&;;;;%+@=%&;:.=+X .X%&:;*;*&;&&%",
"X+o@@;;%o;:;;;;&;@#**#**;;;&@;*&%***;::;;;***;&*;;&;;;;:::-=@:+%%&-%&;&;;$;;;;;;;;*;***:::::::;;;;;o:+%==;;%+X+%X. X%=&&&@@*;&@o",
"XXo@.@&o%;&;;;;*=%:;:;*;;;;;;%&;*;**;;::;;;***;;;;;;&;;-::=o=&+@@=&&::&;;;;;&&;;;;;##***:::;;:;::;;+XX+::%X&;=@%X X%&:;*;@ooo@XX",
"XXXo+@@%@&;;;;;;%==::;**;;;;;&=;****:==;;;****;&&::;;%====:&+X%=:&&;;::&;;;*;=;:::;**#*#;::;:::;::%.X%%:=X.X=X%%X .%&&@&*&*@oooX",
"X..XX+X@@@;;;;;:X=:::;**;&;;;;;@****;:;;;;***;;*;&;&&:=&%@@=+%=@&%:&::;;:*;;;;;::::::;;;:::::=:;:==&;;:::=+&;@&+XXX%@@@@&oo@@o@.",
".X.X+oX%o+;&;;;=X=::;;;#;&&;;;;==***;;;:;;;*;*;;*;;;--&==+@:%%=:@%;;::&&;;;;&;::::::::::::::::;:;;:=::::%@o;;&%+.++o+%&o&o@oo+oX",
"X . .XX;&;*&+*;XX:::;;***&&;;;;;;&***;::;;;;;;*;*;&&&@=@=%::+O&;%o;;;O:;;;;&;;:::::::::::::==:;:::::::+%%%%&;&:%o%%+%oo@@&o@@&&X",
"+. .XXX:@;;;X;;X+=:::;*#*;;;;;;;;%&#;::;:;;;;;;*;&;:=-@=;;:=;;=&@=;::-:;;&*;;&;;::::==:::==:=::=::::+==:%&;&=++o++X%ooooo@&@;&&o",
"@X...XX=@;*;;;;O&%%=;;*#*;;;;;;;;;@&*;:;:;;;*;*;$*&;@O====:&;%&;:&::::;&;*;;&;;::==:::=:=::=::::===%=:=X%++&+%+X%%+&o&@%*@@*&&@o",
"oo ...+&;;;*;;;%&%&%:***#;:;;;;;;;;%@::::=&;*;;$;&&-=%%+o::=:;:&;:=&:;;*&;;;;;;::%%:===:===::=:::=:::=%.++X:%=+++XX:%@@@&**@oooo",
"@@+ ..+;;*;;*;;+@==oooo@**&:&;;;;;;;&:::=;;=;**;;&-@@+OX@::;:;;;;:=+:;&;$&;&&;==&:&=::===:::%::X===+%XXXX%%%%&==&=;:&;&&*@@&&@;&",
"&@XX .X;;;;;;;;X.XX ..Xoo@&&:&;**;;*;:::-:;;;;*&;&@=o+X-:::;;:=:;:=%::;@@*;&*&&=&:=;==:=&::::::=:=:X%X+..%=+%%%=%==&&;;;;**;@;&&",
"&@@o  .@;;;;;;*oo@o    ooooo@&&@*****-%:%::;@;;;;@==%o%=%%;;::&=::%@@:-@&;*&:**&;;;oX+X+:;::;:;::::=+%++. XX++XXX=:;&*;;;&oo;&@&",
"&&&o....&;;;;:*@#o@    oooo o&&;&****;=;-=-&;*;;;=+O++%@%;;%;:&=:;;;--*&*;**;*;;;;;%XXX.+:;:::;;:::::=%X+X.+X=%++:==:**&;&o@@&@&",
"&&&@o ...;:;:;*ooo.o. .o#oooX@@***&#*;;:=%:;;;;@:%O%%Oo=@-:&=%%.&%=:;&-;;$$$*;*;;**X+X . . ;:::;;;;:;;:::=%X+::==:=X+=;@o*&&&&&&",
"&@&o+....;:::;#ooooXo  .o@o@Xo@****#;*&;::;::*;++X+:%+@@;&@::;@X&;;;:&%@@&&&;***&**+.......%:::::;;;;;;::%%X+:=:==%Oo%&;@&*;&&=&",
"%@%.X   .%&::=Xo. ..X  X..X@@&@@@##**;:&:::;::%XX%%=%o+%=:X%::%+O;&;*-;@&@&:;****@.X..   .  .%=:=::&;;*;;;;=;%%==%%XX%%;;:&&:===",
"%o+.o   .+:::+.o .  X ..XXXXo&*&&&#**;@:&=:;:==&;;-:=:+&;@-@=--%&O-&&@&=@&&&&*;**....      ....::=:=;;***;;;;:=%=%%+%=%;::::====",
"%++O%;:XX=&=:..@o....  . X.++Oo@;-;&*@=:::;:;;:=:::-%@@;;:@====&-+@@:@@&@&&;&;*o  X .     .++:& ..%::;;********;;@%::::@%%O%=%=%",
"%+++@&%@%%==:  @oX. ..    ..+++@*#@*;====:;:::::::+%%%=&=&:==-&--oO-&&--::;:;**  ...     ..%%&*.   =:;;;********;&&:::::===+X%%%",
"%%%+&&==%%+=%.  o.    . .   ..X.X-;--%===::=::::O==:%&;-%@+@%O+-O@@@@&&:;;:;*+   .     . +%=-&&**.   =:;;***##**#*;;::===:++XXX+",
"X%=+===%%%%=X   .X.  . .  . ....XX=-@;&=::::===%=:=X%+%&++%+=+O@@&&=;-::;&;*&X.  ..  .  .OO=:&;&* .  %:;*******#***;;;;&:;:.O%.O",
"=:===%==%%%+     ooX    .     ..X%;==--::=:::=:::=%X+++:%=+O%oX:%&&@&;:&;;*X +.  . .   .+@+-@&&*o.   +=:;;;***#*##***;;:%===:%==",
"::=%%%=%=%%X.    +@X.        . ..*$--:::%::+===+%XXX+%%%%&=-&=;:@;&&-@-&;;;X +X  ..  ..+O%@@&&$@. .  +:::;;;***#*###***&+:&=&=::",
"%==:=+%+X%:  .. .XXo+  . ..   .o#-*-$:;::::=:=:.%XXX.%=+%%%=%==&&---&-@%=&&.  X.. .XXX+%O@O@@@X.   ..%:==::;;;;;;;*******&;;;;:=",
":::====%==:    .  .+o     ..X@@##$@@;;::;:;::::=+%++X +X%XXX.=:;@$-@=@%@=&&.   OO+OO%+++++@XX   . . X====::::::;;;;;;*****;;;**;",
"*&&;&:=:==:;X  .X.... .  . &****$@@@o;;;::;;:::::=%X++.+X=%++:==:$$@OOoo%%@..  ..=%O+XX.           .+%%===%====::::=:O@%=&;*;*&;",
"+%%=%;=:::&==  +%X. X..   X*;***$&@ooX.;:::;;;;:;;:::=%X+::==:=XX=-@o$O@o+OX ...X%OXX.              +%%==%%======%+%=@====&&;;%=",
"=+%%%++====%%%%++. ..   .;;;*****-@@oo.@:::::;;;;;;::%%+X:=:==%+o%@@oO@XXX..X.+X.%+oX             ..+%%=%%%@%++O%===%=%@==&=&=&%",
"=%%%%%%%=%%%%%++X.... .X:**;;**$$$$@oXX.X%=:=::&;;*;;;;=;%%==%%+X%%&-=ooXX.. ...X++.           .   .++@%%+%++++=%%===%=====&=%%=",
":===%==++%=*::;**+.. +.=;%%****#$&@@oo.Xo..::=:=;;***;;;;:=%=%%++=O;:==%+++.   .X...              .+%+%+OOO+OO%++==&&====&==&&:=",
"====%=%=+%=;******..XXX;;=%****$*&$@@oo@O;&  .O::;;********;;@%::::@%O+%OXXX.  OX....             .OOOOOOOoOOO+===&&:&&;;;;&;:::",
"=%-+%%%%%%%=:;;;*#& +%=;;::;****$$@&@Oo==&*.  .==;&;********;&&:::::==%+X++XX=-%@++..         .. . +O%%o%OOOO%-:;;:;;;;;;;;;;;&&",
"=%%XX++O%X+=:;;**#*.%==:;:&:&##@$@$@@-=--&&$*    @:&;$**##**#*;;::===:++oX.+&-==@%XX..       .. ...oO@+Oo%%-@::;;;;*******;;;;::",
"==%oXOOO+++%=;;;*#*+===:;;;:&==#@$@o#====&&;$    O=;*$*****#***;;;;&:;:X+@X=&:-=%%OX+.. .  .XoX....OO%%==%@&-;;*;***#####$*;;;;:",
"-%=++OOO%+O==;;**#*%%==:**&&&%@o#oo@O@@-%@&$o..  +==;;:***#*##***;;:%===:O=--=:===%@O++X.XX..+X...X@=@:&@-@;&&;*#########****:;&",
"&$%@%o@=OXX+:;$***#==%%=:$$$@@ooooXO%O@@&@&@X .  +:::&&;$$*#*###***&+:&-&=;:-:@-=&=%@%O+++O=@o....X$*;;-;:;;;*;;;*;**$***###***;",
";&$@O@@@@+.%&$$:;#**=O===$&$@OO++@@%O@+OOoX... .X+=%%=-&&;;;;;****$**@;&;;&-=@:=::@-=@@%%@OooX.XXXX$$;::;;;;:::;;;;;;******#**;*",
"*;::&&---@+;;&&;;####%%@=@$@&O@O@o+oOoOX..  . ..X+==%=%===:&;;;;;**$*$&;&$;-;:-;:::@-==@&@@-%+XXo.oo;=:;:;:;;;;&;::&:;;;;$**#$**",
"*;;&&&&&=OO;;-&*$####&-@%@@@o--O+OXX..  ..  .. .X++%+++O%%=::::=:+@%=-&&:*----;&=:::=&::&-@@@+X%O+o@$;:;:;;:;:;;&:=:--;;&;;*****",
"*;;$;;&$:-:-:;*$##**$#:%O@o@o=Oo+X..   .   .    XXXX+X+OO=%%=%+%=@=%=%&@;;=&:;:%:-X==-O@@O@-;%--@@O@@::::=&;*@&&;-==-=:;;&;****$",
"*;**$;$;&:--;$$;$#**$$-%O@@ooO@XX       ... .  .++XXXXX++++++%@=%=+@%%@@&@@@&-::::=-=:X=oOo=-&&--O-;&:::=;;=&;@-:==-=&%-&;&*;**X",
"**&;*&*$;&-;&&-:-&;$*&=O%ooooO+. .     .   X..O%%%O+XXXXXXX%OO%%%%%%%%%&%O@=$-:;:;-::--O%@-@@&&;@&&*::::=:;:;@&%%--=-&=-:&&;*o..",
"**:-$*$*;&-;$--@=:&*$-=+OXXoXX..          ...@====O+XXXXXX++XOO@&@%+%o@OOoOo&;-::;;-::&:-@O@@@;@*$$**=%:=;::@&@@=%==:=-:;:;**. X",
"*$;@*$%&=&;;--@-=-:$$==+XXX@+..  .       ...o%=-=%OO+XXXXXX.+Xo&:&XoOoOoO+XX.X*:::;;;;:;;:;-&&&*&**$*:=:==-&-&-@%%%==:&&:&*+.. .",
"*;:&-&&;&;-&====@&:*#@+XOO=+%O...       ..XXo=%:==@OO++XXXX+@*Oo.XX.XX.XXXoXX.%:-:::;;;;;$:&@&&$*$&#$*;:=@:;&@@o%%%=-=::&*&..  .",
";&@-;@&&-&:=@=@=@:&&$%++@-@=@O+..   .  ..XXoOo=@==@OOO++X+=@@+XX.... ....X.XX.X.%=:=::&;;*$;@$&****#*;-;-:::=&OO+OO%=:-:*X %.. X",
";-%=&&@==:-:-%%=-@-&#=OO+@;@OOo.X      .XooXX+O-@-@%OO+%-&OX..X....... ....X..XX..::=:=;;$*$;$$@@##***&&:-:&=%O++OO%=@&&:X +X  .",
"&;&@%&=--=-:=%==-;:;$&%%O+$&=%OoXXXX..XXXooXX+O%-@==%%%=-@X.X.. . .  . ...XXXXoO:&  .%::;;$;$$*;&;***;@:-==-=OOO==%%@=@&@.  XX..",
"X .XX@:-::::=--=$;;&*%%X+@&@&-@@oO+X++OO=+XXXXX-&=-@=-::%X..... .       ....XXO%@*.. .=:&:&&&@%&*@$&*==-:;;;;::;;*#$&$&&&.  .++X",
".. X+&&::=%%:--=$;$o.++.+@&&$&-%$OO%O%OO++XXXXXOO%O+&;:-+..... ... .     ...X+@@&&**  . =-&-&@-$;#-*;@===;;:;::::==&#$&%O.    .O",
"X ..O;-:::=:-=:$@@@......@@@;;$$&$$$&&:-=+o++XX+@@@-:=:@X.X . .           .o@===-&&*.   %=-&@@@@O&;@-@=:-:;::::=O%O--@#oX+  ...O",
"X .o*:&=&=-=O;%*$oXX .X oX@@$$$&*$*$;*$;@@+@+oXO@O&:=:@%.X. ...          .o%%-%@@-*o..  +==-=#o@%O=-=;:=;;;::=%%%X%%=@@oX ..X. @",
"X .&$;--:-:=%:&oXX@..XXoo@oo@$$$$;##**$*#@$&-oOo&&=:=o+XX  .            .o-%O+@%@@@X... +=:==@$O%:-%%-=;;&;:-=%=%++%@-@X.  .. .o",
"+X+#$&&&@@&:-oXXX..#&oXo@@@o@$$&$#;#####$#$$&@o#&&%%XoX.   .     .... .XX@@++=Oo++.. ..X%:==-&@@%%@:-O=*@+O==%%X+%%+%=-X.    ..+",
"@X+$$@;@%&;-OXoXXX..@@@@*###&&$;$########*##$#$&%o...X...       . ..X.X+&&OX@@O+......XX====---:&-=:-+o&+.X+%+%++%%+O%=...   ..@",
"&&$$o@@@-@O@o&&@=X+ .  .X.o@$$#$#############$@%X..X...X..    ..X...Xooo;oX=%++.XX.X...+==::=:;::::=:;*..    .   ...X.X..  X.  .",
"@#$o#+@@@@&&&$;o$%oX . . Xoo##$#############=%X   . XX .    X+==%%.@X+@@;=X@%++XXX+X.XX==-==:-;::=:-;**+...      . . .... ...  .",
"XXo####$@@@&*&;:Oo@X.XX.Xoo#@##############&++.... ..X    .+%%=%O+OoO@@$*@O+XX%%+OX+o+O==::::::::-;&;&%-%O+...    . . .X.  .    ",
"XX+@*#*$@@@***;$-X%@@@X.X+#o#@*###########%%++XX .. ++X .X%===++%%%-@&;#*$@X %O%@OO.XX+=:-=::::;:;;@&%==%++.X.     .... .  .   .",
"o++%=&###*&$$$$*;@-&&&&o+o+@@%O%&*######*=%%+OXXX. +::=%%===:==%+X+=::*##@X.+%%%%+XX..++=-:=::;**%&** +==++%%=:@@@%o@       ..X@",
"+@O%++####**$#o#$;;**;*O+++++XX+==*###::===%%%%+X+&;;;;:::::::-%++X@%=;##o..%-=O%==....++:==:;;#*o;*..X=:%%%%=:;;****    .   ++o",
" .+@@=@@#####@$$@$#;=++OOXX+X+X%==;##;::::==%%+O:***;;:::;:::@-%o..X%::*#..+===:-:=-%-=%X==:%;;*#;*o X=:==%%%;;:;;**+   ...     ",
"  .@&@;$####*###*&@O+X+XX+X+OO==O%;*::::::=%==:*;=**;;;;::;$$$@@....+::;#. =:+X;-:::::::+.=+:&:;;**@%=:==XXX%:::;;**.   ...     ",
"  .X@@$$####$@oXo.X... . ..XOO%=:=*;::::::==::*#:%*;;;;=&-@$@&@@.. ..=::;.++=..;==%;-::::==::;=:=;*:%%+%%%%=:=:;;**X   ..       ",
" ...X:-&;&;+++oo...X.XX.X.Xo+==:&;;:::::%=::::#$**&%%%=@+++Xo+@@.   .=::;=+%==%:%&%=@;;::::::;:%=::++++%+==::;;;*;;X  .X.       ",
"  .XXX@--@OOXXXX...XX.+%+%%O%=:-;*::::::=::::*#*#*%O%@OOOXXXXX.X    .%=::%+===%@%:;@:;;;::::::%=%=::=+X%:::;;;&;%===%==  %+     ",
"   .+XO;::O%++XX...X %+X++O+%=:;**:::::==:::;*#$$&@=%++oXX... XX .. .+%::=+======%:;:&;;*;:::::==:::%%%+=::;;:;;%%%%==%   +..   ",
"   ..:;-:::-;&%++X++XX+X+X+OO@:;;*:::::=:=:-;$$$$@@+++X....  . @  .. +=%::%X+==%%::;&;;*&@*  =====+%::%:&;;;;:;&+%%%++     =X   ",
" .  .:;&&;;:-**@-O=%%%+X+O+O%&:**;:::::::::;&&$@@OXXX....  .X+OO.. X.%=:=;=+%=++=::::;**&**. =====+O=&::;:;;:;&&%%%%+X     %+   ",
"    .+&&@*$;;*###**;;&&&-oO@@;$**;:;:::::::&&-@#XoX....X+&@---=:O.X+.+%===:::::=+::;**;;&**   X=+==:*;::-:::;&&&+%%%.      =%.. ",
"...  @+o@;;*;**##****;&&;@@@&&**;;:;:::::-;:@@oooXX. ..O&%O%%=%==OO%%%O=@--::::::::*;;*&@**..X.%+;=;*:::=:%;:@=*&==%.X     ;@. .",
"o.X###&o+:*$***#######***&@&-*&*;;;;:;::::=@@+oX..   .X-%O+%%O%%=:--==@=%%O::;*#***&;=;;;*;@XX+-:-;;-&;--==%;@=&oXX%%=%  X&:;;&%",
"&%&##&@&o@$#**#*#######*#;$$#***;;*;;::-::-=%@XXXX... +:=O++O++++::&$$&&-O%=::###;;;;:;;;**%X+O:**#;&$@$@--@$-&ooXX+%=:%%;;:::::",
"=:==&###*&&#**##########*#**$*#*;;**;;::::-=%O+++XX..=:=+++%+O%++=:-###--=+%-:#*#;=;&;::&*%.oO-***$o$@$$&@@@Oo@oo@+%++%:::;:::==",
"=&=+X####**###############*;$$#$;;****;::&===@%XXXXXX%=O+XO@@+O%X%=:#*#-=--O%*#**;;;=;;;&*%O+-;*#&$$o#o#@$@O@o@o&@O+O++==::;;:::",
"==&&%@@##################-@@@@**;;;$$$;::::;&&-O%X+.X@%O+O+@@O%%=+%*#*;;:-==;#**;*;:=:;;;oX+=**$$@@##@#@=%ooo+@oO+XO+%+%%=:::;;:",
";@%;&;*#################&%oo@$$*;:&@$$&;::::::--Oo++X@X+++++=@%===;#*;;$;;=:&*;;;**;=&*@o.X-;**@o#@@*#$&OOooo@@@=XOX%+%+%%=::;:;",
":;;;;**####*###########%%O@@@$$*;;;@$@@@=::--:---@%=@@++XXX+%@@;:&&*;:&*&@%@$:&;;;;**.  .@=**@o@##$###%%%O@@$o@@-XX=%+%++%%====:",
"==::::&;&;%%%&*######*=%%O@@$$$$;;&:o@XoXX::=:=&&&-;@-+......%O+%@&:&&&&:o@@==;::::;&XX.o;&@OO@o$@##*=%@O@@@@@@;:++==+%%+%+%====",
"%=:======++X+==*###::====%-@&&$*;;;&&-++;&  .%=:&-@;*;..  . .o=Xo&-:&@-&&&@==-::=%==%==:+%=X+O@#$#::==-%%-@&@$*;=%O%&++%%%=%====",
"%====::::++X%==;##;::::===@@&;***;;;=X&&&*..  =:&;&;;O. . X XXooo-===%O%&$#=:-:::%%%+O%X+++X+O@@#;::::=-=@@@*;;$-=%%==%=%=:=:::=",
"::;;::=:::===%%;*::::::===-;;*$*#*;-:++=;&$$    %-&;;o.  . . Xoo@O%%OO%@%;@%=::=%%@OoX.....XX+&$::::::=%:-&*;$*$;:%-@&&======:::",
":::::::=::===:=*;::::::==:;;*;;**#$;=@%-&;&$   .%:;*@X   .   .XoXX++++O@@$@+@%=%O%%O+....X..X+@;::::::=-::**;&&$*%+%&*;==::%=:::",
"::::;;;::=:::&;;:::::%=::::#**;*$#$&=:%&&-*o... +@:&OX..X.  ..XXX..+O@@@=%+%+%%+oO-Oo...XX..+:-:=:::%=::::***$$;&=++=**;;:=::=::",
":::::;;;:=:::;*::::::=::::*#***&;$**;=o=@=@X... X-:&=%@% .%O.. . X.o@O%O%%=%+%+%+%=%X ...+.O@@-=::::=::::;#***:@%@+O=***;::::=:=",
":::::;;=::=:;**:::::==:::;*#**;;;*$;=&+X%+XoXXXXX:==%=%+  .OXXX.X.X@+X+XO=%=-%-++oXXX. .XX@=--@-=::==:::;**;*&-=O-;+@***;:&:::::",
"::;:::;::=::;;*:::::=:=::;***;;;;$#$:&=++++oXXX.+=%==O+ .   =+...XO@X.X=$==%:%=+X.X....X.%@-%-==:::=:=::;;*;$:&&O-:=%****;=;::::",
"::::;;;:::;;**;:::::::::;;;***;;;;$#-=-+Ooooooo.O=%%=%+.. . @%XXXO&-O&#$*@%%OOXXX.. X .XX-%=%@%@=-=:::::;;&;;-:@+o%=+&##*;;;;:::",
"::;;;;;:;;;***;:;:::::::;;;*#***:;;*$-&&O@@@oo+ %%%%=OXX....-=O+X@=OO##**$@%+X+...... ..+%O%%O%=@@%-:::;:;;*;&$%X%;=%%*#*;;;;;;:",
";;:;;*;;;;;**;;:;::::::;;;;********$*$$$o@@@@@#..=%%%OO+XXXX;-@%=:=:;;&$;&@+++X....... X%%%XO%%OO=;:==;;;::$-@:O%%&=%;;:***:;;;;",
";;;;**;;;;*&*;;;;:;:::::;;;*****#***$*$$@&&&@$$.X=OO===-+O@::;:::::::;&*$@$O+X.X...XX.%%=%%+%X+@@;:::%-;@:;%@=&+&@=&&:::;*;;;;;;",
";;****;******;;*;;::=::;:;;;***;&**&&o@&@-&&;$# X@=%%%=;:=;-:=:--=:;:;*;$$-OO.X.....X@@--=%O%%%&;%%::=%=-:=;&+X%=:&&;;::==;**;;*",
"*****;;****#*;;**;;:::::::;;*&;;:**oO%&;@@%;;$* .=======:%@@@=--::::;;;&$@-=+XXXX.XXo--:@%=%-%%;;%-%O@:=@+@@=O%=@&%:&:::::;#**;;",
";;*********#*;;****;:::%::::;+X;;=&*&=+:&=&;;**+.=%%+=%XXX+@=-=:=::;:;;:&&@O@XXX.XoO@@:&:-=:::-;:=::=+X@%=%@:%%=:@%;;:==;;******",
"*;****;******;;;***;:::::::;;Xo;;;;*;=%=:;;&;**@%%%%%=+.XX+O@-&:::::::;::$@%@X++Xoo&&&&&=--@::=::===%+O+o=+::++&;%o;;:+::;*****;",
"**;;;;;******;:&@***;:::::::: X=;::&*:==%:=;:;;;:=%=:%.XX++O@$$&:::=::::&&@-@O+o+-&&&&&&:-:-=:==::=:%%%%%;;:=;;=&@=;::=:;;*#****",
"*;;;*;;******;;;@**;;;:::::::+.+:;:;*;::=:=;;;;*;:==:O.oX+XO&@;:==:=::;:;&&==@OXO&&$;&$;&&&:-%O=%;=%=XX=:==:;;%&;:&::::;;*###*&*",
"****;;;**#***;;;:@&o@;;:=::::+X+%:;::;::::=;;;;;;:++XXo.XX+Oo&&@&@%::::;:@=%:+@O:-;***&;;--O=%%=X;;X.XX%.o::=:;:&;:=&:::**###***",
"***;*;;******;;;;&;+X;;::::::+..%=::;;;::%=;:;:;;:%..XX.XX.OO-@%-@O=:;;;&&%==O+--;$***@;&:@O%@=%+:;XXXX+.@::;:;;;;:=+:::;**##*#*",
"****;;********;;;:+;;:==+=%:%.+..=:::;;::=::::::;;:X.+X.XX+o%ooo@#*O=&:;:@=@-=X&;;****&*&:&O-%%+.+XX...X@;::;;:=:;:=%::=:**###**",
"***;;;;;*;***#*;::.X=;;X.=%=+X++.%=;;;;;:::;:==::::%.+O..+X+%OX&@;*=%::&*&@%-&+&;:***;;;:;-%:O=++X+.XXX%:+%;;::&=::%@;:=:**###**",
"****;;;;;;****#;;==+&;;::%:++X*#*X%&;;;;;::::::::=::%X+X.XX%%X%&*;$$$%=**@&--%%::;;***;;;:;:--%+%++. ..+@%;;%;:&=:;;;==;:**####*",
"***;;;;;;**;**#*;::%;;::=%=+X*#**%%=:;;;;::::;:=:::=:X++.Xo+XO@@-**&#O=$;&--O%=;;&****;:&::::==X%++.X.Xo=@::&=%%.&%%:;;:@;*####*",
"#**;;;;;**;;*****;:X=@O%+:%.=&***#*%=;;*;::::::::==+-=++%X+X.OO&;;*$@@O&$;;%==;:;:;*;;;;;&::;==%%%%X+X.;%;&@::;@X;;;;:&=%:;#####",
"#**;;;;;;;*;***#*:;X.%+===++&&&***#%=&;;*;::::::::=X+==%%X+X..o;;*;$@@o;:;*O%::::;&*-;;;;;:::==%%%++++o;=:;X%::%++;;;;=;;=;**###",
"##*;;;*;*;;;***#*:;:+=%==X %@&;;****&&&;*;;;;::::::=+%===O+X.X+:*;*;;$;-:-:-;:::;;&@=:;;;:::::===%=%%+:+@;==&:&:%;+:;;;;;X%;*###",
"##*;**;;;;;;****#;:;%%%=:X..o;;*;***;::;*;;&=;:::::===%-:%++XX+;;$*$$#@;-@:::::;&;;oO:;;:;::=::===&%==;&:;:&::::;;Xo;;;;;=&;;###",
"####*;*;;;;;****#*;;:+==:+XX+;*;***#*;:&;*;**;;;:::-:%=O=-:XXXX&&;;@&;*&@-&;:::;;;=oo;:;;;::::%==:=%:&;;;+&:::;;;:%%&;;*;*&;;**#",
"**#*****;*;;******;;:X=%:X+X+;;****##*;@&*****;;;::=:+%==::OX.X&:;&;&;:-o--&::=:=&=.+:-:;:::==+==::=::@==+;%:&%%;=@;;**;*;&;;;*#",
"*#********;*****##*;;X==:XXX+&;*****###;;;&***;&:::===%%+::++X.-;&&&;&*;@*;&::=;-%XXo%@:;+;==%+++=:::%.:;XX:=:++%:;;***;*;*;*;;*",
"**#*##****;;***#*#*;;%=%:+.X+&;;*****##********;;;:==%%%=::=++.=.+=&&&::;;;::=:-=XX.O%+;;%:%%=%+===::XX::@=%&:&@%;;;;;;***;;;;;;",
";***####********###;;=%::+X.%&********###****#*&&;;&=::=%=:::O++@X.XX@%:;;;;;&&%o..X+==&:::::%%=%::;:::&:;:@&&@:;@:;;;*;**;*;;;;"
};
