/* XPM */
static char *db596f23ec344df2f38475766df8da26ouJagAp0v5p7rrMt[] = {
/* columns rows colors chars-per-pixel */
"128 128 16 1 ",
"  c white",
". c #DADADA",
"X c #D8D8D8",
"o c #D7D7D7",
"O c gray84",
"+ c #D5D5D5",
"@ c LightGray",
"# c #D2D2D2",
"$ c #D0D0D0",
"% c #CDCDCD",
"& c #F4F4F4",
"* c #E9E9E9",
"= c gray88",
"- c gray83",
"; c gray73",
": c #A7A7A7",
/* pixels */
":::::;%::::%;%@$%-$++XO@++-@o@o#;$.X$$X.%$%;;;#$#$-%.+X..#X%.+.X.=+oX. &  &    = & & &         =.Xo%+;:;:;;:::::::;:;%;::;;:::::",
"::::::::$;=;%%;#%oO@+-#.$#+++O$%$-%;%%;$-:;;#%#%%;@;.%X%:;:;O=*&=o-$X$-.*=&& &&                *=OO%::;::::;:::;;:::::::::%:=:%:",
";:::;%:::%;%%%-%X#o$#.+X#.@+$;;.#;$;;;;;;;;%#%$;$%+%#:;%;:;;%OX+XoX.#.$@#+#*&&    * *&        & O#$#:::;:;:::::;;::::::::%;::%::",
";;:X;:@#%%;%;#%O-o@+.@..X#OX%$@$%%:%;;%%%;%%:$;+%##:;;:;:;:%:@+.$=*O..+o%@;@+O@&&&&&.&&* &     =X%@;:::;::::%;;::::::::%%$;$:X:;",
";;:;;%o%O%;##$o@o##@O+@X.#@-=$%X%%;:;:;:;:#;%%;%:;;%$:%;;::::::%@=.XX$.o%;::;$@+@-#&&===&&* & =$$%%:::::;:;:;:::;;;;:::%:%%%%::;",
":;;%$-$;;@#%%-#@++.@@@.-@+@-%%$o;:;%:.:;;#%-:%;%;+::$;%::;::;::;...+@O--;;::::;:%+. *&&&X&&*&&.;;;:::::::;;#:;:;:;;;+;%%;;:%#@;:",
";%%;%+X.O%%%%+.+.#O$+X#.$@o#++%$$%O;:%;;%%%;;:$%:::;:::;::;:::::#%#;+$@;;:;;:;::;%.* &*&&&&&&==%:o:::::;%:::;:%:;:;;:;;%::$;:#;+",
";#%%%X=-+@@@O$o.o+XXO-@XX.$.#-$;%%%%:;%%%$%;%$:+:;;:;%;;;:::::::;$;;:$%%;;::;::;:+@+-$*&==**=*o%;;::;;::;;:@;:%+::::@;:%$:;;+%;%",
"$%$;=.+O.X#X.+X.+$XO@XXXX$.$@@$;%%:%:;:#%;;;;#::X:::;:;:%::::%;::%$;::#:::::::::::$O@O@*=*=*XX=%:;::::;;%;;:;;::;;:;$;:;;;:;:#;%",
"$+++X$o.XOXXo@@XoX@o@X@oX@%.X@X$o;%%%:;%%:;+::X:%:$%;%%:::;::::::%:;;;::::::::::;:o@+X$X =**&.*X%::;;::::::.:;::%::#:;$;%;;%%%;O",
"%%-.XoXo.=XXX@+X@X@X.$Xo@.@XX.o%$%:%%:%$%%;:;-:;:@;:%%%%%:;::::::::%:::::;:;:;:;:;;...Xo.**=.==;;:;::::;-@:;::::::;%;%%;;;:#%$@$",
"$.OXX-o==o$X.X@+XX@O@#@.@#XO@#o$@%;:%;;:%:;O;;:;$;%%;;:;;;;;:;:;:;:::::::::::::::;;#X+OX@.=O+..::;:::;:;::;:;;:;::::%;:%-$;%+O%X",
"#.O.o=.=.=X.X@XXX$X.@XX$-.OX++@#:%;%%;;;:;:::$%%:%;;-:%:#X;%:;$:%;;:;:::::::::;:;%:@XXXX.+=XO@:::::;%;%:$:;::;%::;%:%;X%:$;X;$%-",
"-@.+=X*==O.O-@++#XO.XO.+$.X..X@%-%;%:;:+;:%:::#;;;%;%%$;::O%%;%:;%:@+#::%;:;:::;::;X.=o=XX=.$;%::::$;;+$:;:;;;;::::%%;;:%%-;@@%X",
"@.X@.==.+.X@XX$++oX+*+#=@+X.X#+%$%+;;;:;:;:%;:::;$%;#O;#%@;%%%:;:$::;;%%:::::%;::X;$$=.@%.O;@%:::;%:;;;;::;:::::::::;$%+%$$@-%%X",
"O#@=X*.=X@@Xo+.oX#X@@O+$.=--X=X%$%;%;:;:%;:;:;:;;%##%#;%%%:-:%;$%%:%:%$%%::%%;:;;:#O.=+X%%;;:;::;:%%;;;:%;:;::::::;$%:;:O@@;%+;.",
"$X=.=.X+OXX@X-o.oo..$.#X.XO*OX@O$;;:%;;:::%:$:+:%%#%.%@;%%%%%;;:%;%;%:;$:;%;#;$%;;%.X@=;;:%:::::o:;%;::%;::::;:;%:::$;;-;o;%:%;%",
";.+X+X@oXXO@.oOX@oX..oXXXXX+.Xo#X@%#;:o:;:;;$;:%%X%%%X%=$;-$%%#;#%%;:;+%@-%=:%;::::;;#%;;;::::;:;:%:::;::%::;::::%::;;;;%;%+%$:;",
";X@X$.o+O+.X@o@.#OXX+=#=OO=@&+O@;;;;;#::%::;:X;:$%#%-@$%%$$@$;;%%%;%-$O@@..%X;#$;;;;:;::;:;:;:;$:::::;:;::%::;;;:;;:#:o%;;%;:;:@",
"%%%X@@o*X.X.@XXX.o*.X=..X*$=.==O+$%$;:;$::;:%;$O%-%+@X%%$$%%##@$%#X$%+#.X-X+%@%;:;::::;::+::;;:+:::::;:::;;;:;:;;%:%:%:%$%;;::%:",
"::@O#-X+-..+..$..oXO****=-.=..=X.-;;%%%;%;:;;%%$%%+@+O@%#%O$%$%%X;%X-@@OX+X.;$;%::;:%;:@:$:$;%:;;::::::::%:%$:#;;;%;%%%%%%%$%:;$",
"%%@%X+.%=O+.@XXoO+**=&&*&&*..X+=O#OX.@+XX%;;%$$%$+.@X#@+O+-@o%%.$+@-.@@.##X%+%%:::;%:::%#::%;;#:::;;::::;::$%:%;@%$%X;%%=;;#::+:",
";;%$%ooX.%=$O##+@=* &&* =*&=**%*o=XOX.X#.OXX+X@O+.%o..@OX@$+@OO#+X.-+@++$X%$@+;o;:::::::;$%:;;;;::;::::;:::;;:%:$%;%$X%#%#@%%%;:",
";;+$@-X-*#@O@-$$*=X==     *&*&=&*$$X.o=X.@O+..+.OX*+O.#.@+X@.OXX.Xo.$$o++@$%;;%%;%::%:;;;:%%;;;:;:::::::::;::%%;%#$%$$$%X%@;::%%",
";;=;%+Xo$.X@@@.X.=@*& && &   *=&=*.X=XOo++==+=.$+o.+@@.X..Xo=XX+XO#o@@@+O#OX-#%$;$;::%:;:$;;%:;;;::::::::;;::;$$%#%$%-o%%o#@%@:;",
":@;%$@#XX$+@X.+=XoX$=&   &  *&&==**&..==**o*O*&=...=-X.+XOO==$=*=+O..+@@+-+@-#@%%:$:;:%:%;;;;;:;;;:::::::%:%%-%%;%$%%.-%X+%%;@:%",
";;%#%@@XOX@o@=..X.+#%        *&==&*=..*#=& =***+**&.O.X.XX@X&=.&X*XXX.Xoo.@X#;.%;.%;:;:#;;-%:$@:;::::::::::;;;%%%@$.$%OO%%+%%%%:",
":%+X+-$$.$O+**.=%X#=&&      &*&*&&==*=&&&**&=&==****=@Xoo=.&o-=.X+O.XX=X.o+;%%:$%$=:%:::$$%X;;;::::::;:%:;;-%;@#;$$$%%%%#+;;;:;%",
"%$+$o.$.$O.o*=***.= *&       *&&*&.&&* &  &&&=&*==*.==....XO=.@XX@X@=@O%%;:%%:%$%o@::;;%%%:O;+:%:::;;;;;;;+.$#%$$$%$+@+$;;%%;%;%",
"%.=$O=&%$X.*=@*==*&** && & **&*&&*&**     **&= =*=*.X..**.**.X.X#@X%X%%::O%;;;::$;o#::;:$$;;;;:::::::::%+;:;$XX++o%%+.X-$%$;;%#o",
"@@#.==*.o=X= *== .& &     *&*&&**&*&     * *&&=*=*==*&O*-O*#-.oX.-%$+;%;;;:;:%#$%o%o;:%#;%:.$::%::::#$:.%:$+%O#@O-.#=.;:;$;;;%$-",
".-@X=.*XXX*=&=&&*&    *&&&.& ** *   ** **&&*&&=&=****.=O&*X=OX.#X#+O%#$%;#;;%%%%%#$%X:%$%$;;:;:::%;;;;;%#@%$$;X+#+@*O::;;:;:;-#@",
"##@X==* *+*&&&**&  **&=*O%=*=&&**  =&&**&&*&&&=& = =*.&.*X@=-X.X$@OX$;@%%;=%;%%;%;$$o@@%%X;::;;:;;:;;-;@%%.%O@O@.+=&.:%:;:;%#%%O",
"%X+@=o*=&==&&    &&&=**XXXOO.=&*& = *&&=&=&==**=**=**...==X+XXoX.X@#X$#;=;%%%%;+;;;.%%.;+%;%$%:;::;:;$$%+o%%%%@o=====::$%:;;:%#%",
"@@.=**==&&=&&&&. *.+**=O$-o@o#*&*  *&===&=*****.O****.=X++OX@.==O=@@%%$%;%%%;;X#.#$$$%+.-%%#:;:;$::@$o-+@-%%+-@#o=@O.;%;:$%;;%$$",
"++O@X********=O..=oX==Xo%#%%O@%* **&&*=*==*oX=.==.XXX.-oo@XoX%*.XX-.X%+;%%;%%%;;#%$$+X#-%;;%;#;;$:;%O-#+++X%+@..XO.+=@%:;:%;%%;#",
"+#o===.....=++O#oo$X@.$;%;o$$%@-+ &=*& =**...=.=++.=.&@@.#+XOXoXX*X+%%%$%%;%;%%%$%XX%+@*o%$.%%;;:%;=+-@X-+@+@-@#XXO*==:%:;;%%%%;",
"+$$=..@oXO*$+%++%X$.$$%%;%;#$$$%##****=**O=@*==oX+*#*+.OX+X@.XXX$=+XX%%-#;%%;%@%%%+O-XoXX+$+#$;;%;@.@.+%%O+.-+#+@O+=&-:%%:;;%;@%",
"$-$=.=X.-@@%%$$$=%;%;$;#;$%@%%%;##=@....@===@.XXXXO.X+X.X#+XXO.o.OX+#+X+%$X;O%%%+%@@$.$=#@;O$%:%;%..-+$$+$.#O.=X=.*.*::;%;;$%%%+",
".oX=..O@-%%%$-%;:;:%;;#:O;;%%%;++-#XX+++@XX#+#X.X.-X$o.X..Xo@@.=X@X*+@XX#O%@;%%#%XX@X=o.o.+X%:o$:;.+O@%%%::%=%%;=O@.:;:$%:;%;#o@",
"..O==-XX#o%$$%;:o;:;%%%;;;%%%%%-O%@@X#.o@%-+o$.XOOX@@O@@XX@$--$XX$X@X.+X.+@$%%.$%@XX+...=o$;+%:;;@%$%;:%:::%:::::::;;;%:%%:++#;#",
"+X.O+@+#++X$$$;;::;:%;$$;:-;;%%%#$+++.+X+@@@@X.$OX+o#;-@XX+#@X@O.*O==O.+=+XO;$%%@XX+=**OX+%%o.%$%##o-::::::::::;;;::;:;$:;;X;;OX",
"O-X.X+-.+#%;%%::;;:$:;;@:;;;%%:%%;$X@$+-.@.@@.O=X@@@+-#o-X#=XX$=&X+..=O#XOo+%+@XXX.==..#X#@.X.$%%;%;%:::;:;:::::;::::;::;+$;X$@X",
"O=X.@#X%$;;#:@:;::@:%;%:;:%;@@%+;;#%$oO-#oO..X.#@@#OO+X$-#.o+&-=X=.==+XXX+.@+@.$XO==X=O.#+=.X*%%;@;:::::;:;::::::::%:;;:#:;@%$OX",
"XXXX=+$%-;%::;O:;@:;$:%::;o@%%.%-$%$%O+$+.oX$..X+#@.$-X+#=+Oo==X.**..#=+Xo*@*O+..+=X&X+++-@XX$$;=%:::;::::::;:;::::::;:$;$-@%;-+",
".@@@.%%$:%%;:;:$;;$;;%;;+%$%O-$o@+X%%+$.X+===@#X+X$+@*.**..=.=.*=**=*.+*..$*@XX+O=..==o++o.O#O##;:;:;::::::::::;:::%:::;:$$%%+X+",
"X.XX%o%%;;:::-:;:%;;;%;:%$+@X+@X@X@@@X.@X=O=&.X@=oO=***=*=*=*O.***=*X=$+**=.X.=+=.==OX..@.@Oo%%;::;:::;:;;::;:::;::;;:;;%;%XoX=.",
"XX+%#;.;%:%:;::%;@;;%%;%%@@OX.oO.X=+oX.OX%***%X.=.*&&==*&&= &****=***=*&&&=***.=+.@..X+XX.$%%@;;%:::;:::::;::;:::;::#:=;.$#O@@.#",
"OX%#$;$;%:@:@#;:;=:;:$%:$%+...@oOO-*+=#.X=***X..**+ . ==&&***==*= =**&& *&**=***X-$%%-oX=X-$-%%:::::::;:::::::%::;;::@;+%+=#XoXo",
"o@O$#$;;:;:%::::%%;;X%;%;..$o.X+X.O=X&=.#.*=***=&==&.&*      *&& =*=&&* &=*=&* *%%#%%#X.+*+@;%;:::::;::::;::;:;:;%%%%%#%XX+#oOXO",
"#.-.;;;;:;;;;;::;;;%:%:$$+#.oX-*.+.*X=**@*=*=*==*&*&*    &     *=*=*&&&&*&*=&&=-X#@;OXXX.@%O:::;::::::;:::::%::;;;:%;%$;X$*X-=X@",
"..%:;:::;::::::;;::;;=%$+@-@+$..*.O***=*&==&=*=&&* &      & &  **&* **  &&.& ==@$%;+@.O.X-;::;;::;:::::::%:%::::;;:%:%$OX.XX.XXX",
"+X@:::;%:::::::;:-;%%$$X++Oo@++=XO**=*&*&======*    &  * & & &  &   &  ** &&*@..%:;#O...X%:;;%:::::::;::;:::;:%;::%%#;.+#O-X-O..",
"O;;:%:::::%;:%;;::#%:%%$%X#+%@@o.&==** *&* .&&               & &     ** &&@@%+;;+:;:$@=+;;%$;::%:::;:;::;:#;:%;%%$$:%$+.-=.X.o-O",
"$%;%:;:::::;:::;;::%;;:+%XOO@@O$== *   **&X&+   &   &            && &=&&=+oXX%%;;%%:;=;:;;;;:;::::::;::;;;%;-%;;#@%;%%O=X**=*X=#",
"%#$@;$%::::;::::@%::@;:=$%@@@X.X$=&  & & &       &&   *X&.=&..&*&.*&=&*&*=.+%$%$%%%:$:;%:%:::%%:::;:::::;;%%;%@$%O+%#%$.**=  *=#",
"X-+@o%@::%%:%:;::$$%;;%$%+.#.##=$& &        &   &  *&==*=**$**===&===&& @=$+%$+%:%;;;$;$:#;:::::::::::;:::;%@$%;+@+OO%@=*= ===$@",
"O..OXXX=%;:::;;.#$%%XX%X@.@O@X*& &  *            **.& ==&=****** * &=&%*X=o@%#;%%#;:;;::.::;:;::;:::::::;:;%%+XoX$$@%X+oo&=**.OO",
".+$=.==%-#o%%#.+X$..O*o$@#-.** &  &             **&&&&= &=*.X.X*=*=&*&&*=O#.-%.$%%;;%:X::%;::;;;;:::;;%::$#;oo@#oXXX++XO=.*.=.X.",
"*@*=*@..=XX.XOoO#=+@X.....==& & &              =   =***o*..=.=+=***=& =*.OO$@OX$;%$;;%:;:::;::;:::%;;::;;:$-+@@XXo$oX$@XOo=$****",
"*&&&=&*=**X.*-*=**==&&=***O***  &            &   &$#=X*-$==.==Oo+.=*=**O.=.OX@%%-%;$;%%::;:%:;;%:;;;:::%:;;=O.XXXO@O@+.O.OOO.*&&",
" **&*&*&**=&    &*&&* *=*XX+&*    &&            .%+==oo+.OX$XOX.O%=O&oX=@.=X.X$++$;%%;:.:$%;%;;:;:;;;:$%;%.#XXX.=XX*.Xo#X.-X*&* ",
"& *    = X&&&   &&** *&&&*=*& &   &       * &  *+=O=+-@.+@#..@XXX=$=..=*=*$.oOXXo%#@;;::$;;;:%%:;;:;::;%%#%-#=OX..+O$#..$@&&@&& ",
" && & &    & &&  &   ***&.&* &    &        &  * X=$XOX#X@@@#+@.Xo*=.=...$&**=o+.$+%%;@;;%;;;%+%:;:;:$:%+$%O@oXo+=*=+=o$X@*.XO. &",
"    & & & &   &    *&     **   &&       & &  *&=%.oOo#X@+++X%=#.X+==.===.-**O=oX.@-%=;;;%%%;-:%%%;;:%%@$%+O+oX===...=.==.=.O=&  ",
"      & &  &    & &  &  && & &          &   &*&&**=XX-$$.O%O$++.O.O+o=.==***=&.OXX.@$;%:;;;%;%:%:%%$%@%$X$+$X===XX=&**.=.X.*= &&",
"         & & &&     && &  &  &  &         ** *&&= +X.%O;;+;%;$%+@.*X@==*.o***=*.X.$O%-%%+%:%%%;:$:#%@%X.@.$@#O+.&*X=**X*&X**&&  ",
"                &  &      &&&&      &  &**&==*&*=&=+#%$%%;+:$$%$X+#..=%*&%*o****..X@X%%$:;;;%%$$;%%+@OOoXo@X.==...=&&&====&.*   ",
"           && &  && &  &        &==     *==*=&&&*& X@$@%$#:@@::%O$X@O=.&#*@*=*&*X=OoXX:%%%%;%%;#$X$@X#=$#Oo#+@+.=O**&*&&&&*  && ",
"             & &   & & &      **@OX== &  **++==&&* *$+;%:;;;;%;%%oXoXo..** =$==*.=OXX+X;#%%%;@%$O@ooX.O*X-Xo====o&X*=&&&**      ",
"        & &  &    &   &       *@=***=&&&  &=**=&.& *O:%;#::%;$%%#%@+o.+=-=&&&= =*.=+X@X.$...%%%%@+@o=oX-X*===XX#==X**&&&*  &  & ",
"        &*&* & &&     &&.&*&===*O-=&*+.=&  &*&=&=&&X$:#::;;#:;%%$$.$#XX@*&* *&***..=X+X#.oX@@.-XX+O*=o+XO+..=$O.XXX.O*=&* & * & ",
"      &+%*@** &&& & &=XX=..O.**&**&.&+++=X*&&&=*=&==#::;+:::;$;;%@%XXOX.O&   &&**O=.#.&+oXXOXoXo=X.OXXX*O==++XX.$#.@=.*& &     &",
" && *=%#@#o.= &  & &X====@@==-.* X=O#@@+O#$$*=*@***.X%:#%%%#;;:;;;-%.OX.** && **&=.=.==#=.oO==X..&.O+XOO@+.X..OX.Oo*X==&+  *    ",
"   *=.X$@.XOX.&** =$O=OXOOO+OX.=.=$$$%+O@+$o.* =***..%@;;%;:;;X%%%%#+X-%=&*  *& *=*.=.X=*.=X*=**=*..=+=.*X.oXX.oooO.*-=&&*      ",
"*&**=+$@.XXo=&= =*@@@OO.X=+@XX.$O.X;%;+.@O.$@***.===-%:%:%;$%;:;;%%%X$=*=&  &     &==*=*#*-*=&&*&=**=X==**O.+XO==..*=*=&&* &  & ",
"*.-X+o.oOo.-=..#O%X@Oo.O.$..X@;$O#=.O%o@@.XOO-X&=#..-::;$%;+:;;%;;;@@oX*&*   & ** **&&&*==*&&**  &*=&&&&&=**=$o=O&*=&*&&&&&&  &&",
"*+X@+#O@o*-.oOOOX@X%@+X-#O..#+@%%::%=+OX-X.-o$+.=X.%;%%;:%;;.;:o:%%@@-=*.&*      &  * *  *&***     **&&*&==*O..O&==&*&*&*+.=@=*=",
"Oo$@--%O+.o.XX.X$X.+O@X@$.XX@%%;::%;:%$;$@X=Xo*+X-.;%%;%%;;;;:;;$%$%.$.= &* &  &    &  &              *&*&&==**== *  * &*@o#X==+",
"XX@X+@+$%;O%XX@@X.o.@X%+X+oO+$%%:::::::;$=o=@*++.%#;$%;;-;;:#$;%$%@.X+=*=& & & &  &&     *  && & &  &   ** *&&==&    * &*@%%XXo=",
"X..%%X+$;:O.+oOX@@...+%O;#@=++#%:%;::;$%%.X+.%;#+$%X;%%%$%;;$%;$X@X#o@oX**   && &   * & & &&       & &&   & **&*&   & &=#%.%$:%;",
";:;%#-.%;%;;%;%@X==.XX%;%;O=X@X$;:::::::XOXO.;;%::X;;;%%:;:O%;#@%.O.X@+.*&&     &&          &    *         &  *&&     $o+@#%%:$%",
"::%%;O%.;;.;$;$.+=.*=X.@+XO=Xo$;;:::;:::%;O#.;$:.::$:%@$%@;%%%-%+@XOX.O+X&    &             &     && &  & & & *&* *  =+@o.%%:::;",
"::;+%$X::%;$##$.=-.*.@=..O.=X#X%:::::::;:%:%:;;:::;;@;-$%%%+#;$@.OO=@oO=*&                       &     &      *& * .&.;o=X-+;;::",
"::::+#X;%;%.%$$.=@=*X=.**O&*O+.;:;:::::::;:;;::+:+%:+@;$-%-%@.@#.XO.&$=*** &                       &  *&  &&& &$&===*-%$@Xo%+;::",
"::::;%:;%:o%%%%@*-XX&X.&=*=*=$%o::::;:::;:::;:;;;::.##;$$;%%;$-.O-.=**.*&  &&                   &&   * &      &=*=&**o#;$+@$;;:;",
":;::;$;;;%%.-$%#=++o.=.**& *-=;%@::::;:%::::;:%@:%%$$%#$%@;@#%X.XO==OX*=* & &                   &       & *** &=*****o%%;$o=::;:",
":;:::%%%%$+@@o-@#*=..*O+*OX=X.%%;::::::::::::;#;+#$O+%O%$$;%%=XX.=.O**&*   &&                        *   **&  .*****.X;%%$%#%;::",
":;:::;;%$.O+@X$+O$XX.**&.$@#+$O.$;;:;:;:::%:#%%@O%+#@+@$%%$o+..+$=***=*   &&                           &  &&&*=*X-**@%-%;.$$@:::",
"::;::::$%%@-XX+X@+.$%&O.+.XX..@O%:::::;:;::::.%%X.-.#+-%#@$oO.@.*X**=&*& &                            * &**$**=*O**..%X$#+%.%%:;",
"::;:;:%$X-+@@.#@+@$.#X==..%=o@.#$%:::%;:;::%%;.X#*oXX@++#=X=O$=.*=@==&&  &&&                         *   **X.=...&.@.@%%$.$%%$::",
":::;:%:#X+XoOo@.X+@O+;XOX%%:==@$+::;:;:;;;%:;%$+.OO@@X#O+$*.=*X***=&*   &                             &&& *..=*X&X+..=%$$%%X+:;:",
"::::%:;-+@.oXXX$@%.%:;%%$:%:%%$%;%$:;;;;::$;$-XX.+&+@XOoo-+..***=* *  & & &                               O$=.=&X=.@$@+O%;X@$%::",
";::::;%@O+@O.+.@X@#::;%%:#:%;o%;X:%;;:::o;;:$$#.Xo==X@O.X+=**=*=&*  &  & &                             &&=.==*@=oXO@.O#X%X@=+o;:",
";%;%::@;$#$%+%O%#;::o::;%;%%;%$-:;%:%;:+:;;;#%X@X+===#X#=.O=*=*&***  &                                   *$=@-.X.+XX.$-$+-@@X;:;",
";:%:;%;@+#;$%$#%%;::;#:::;;%;@;;;;;:::%%%%;%%$XXX=%=**.=-.= &&*  *&*  &                                   &o=+-XXX#+++XX-o+$%%#:",
";%:;;#$$%%$$%%%;$:%;:$+:;;%;;-;;:%%%::$;%;%%.$%$===.**#&.O=&** &    *&                                    ***.=.$.-+O;$%$;$%;#:;",
";;::%;@%O$$%$$;o%;:%@::;::;%;:%;%:;%%:::;$%;$#%@X.$X*= ===& * & = = *X &&                          &&&&   ==*=O..%%%$$%@%%.%$%+%",
";:$$:#;##$$%OO+;%$;:;%;;:::X%%$;;;+:%;;%;:%o$%%+X.=**=&*&&*    &       &                    &&         **&=**.@+%=%%%%.;;$%:%%:%",
";:$:%$;%%@$#$#+:$::%:;:%:;::%@%;+:-%;;:;%;$%$$#.X==+*&& &*  & &    &  &    &  &            &        &&**&=*+XX+%;;ooO%%-;%;;%=;%",
"::;;;;=$X;$$;@;:%%;;;:;:::;:%@;$;=::X#::%;%%$%@XX..*= *&&**  &  &&& &     & &                  && &&    &&&*=X.$%.X@@O%#$#;#:;:;",
":;;%:$;;;:;:;:%::;:::%;::::;;:;.;:;%$::%;;%-@;XOO=.* * *             &    &   &             *       *  *=****X;o;...o$-;.@$#%O;%",
"%%;%#%=%;;o;:%+$:%:..:::::::::;::;:::$;;=:%;.O$O+.&O=&**    & & &  &&   &   * *            *   &.&  *&&*#+%O+-o;#XX+%%.%O=.$+;;%",
":%%:%;;%:%$;$:::+;@:;:::::::::::::%:%%:+:%@$%@o.-=.*&**   &   & &   &&    &              & &  $*+X=&=+X+.@=%%o:%$+o%$$:::::%;%;;",
"$:::;%%;o$#;;;;%%:::::::;;::%::::::;;;%%;@%%X@=XO=o*&& &  &&  &&& &  &    &           *  &  *&X**..**.+$@+%O@:;%+$;=::;:;;:::;:;",
":%;;%#$o@%%O;;;%:::;::::;::%:::%:;%:;%:#;#+%.X$X@.**==****  && & &                     &    **...o+=+OX@+%%.%$%;;.%:::::;:::;;;:",
";;;%%+-.X+$;%$X:%:::::;:$;X.$;%%;;%;;$%%%$%%@X..=.$*==&&&=    &&  & &*                *   *&&=*O=@=X.O-@O.@=O;;X;;:::::::;:;::::",
":%%.#o.@#-%$%@;;:%::;:$;%O%X-#%:;:;$$%%;+%OX$XX.-=X*=&&** * & & & &                     * *&****=O+oXo#++@X.O%=%#:::::::::;;::%;",
":%%+.X.@OO%%.;;%:;:;::%;;@%-++X:-$O%%%..%$%.@Xo*=.&**=*&**   &  & &&                     *& @**=@.#@-%-++-@O%;$::;::::::;::::;;:",
"%X.#...oO%%.$+;::;$;%;%$%@-#@@%+$$;%%;;##%.#XX.O==O**==&    & &  &&                &  &  &.*%=.@.XX.##@@X$o@OX;:;::::;:;:;:::::;",
"Xo$.o.%%%%$;%:;O;:%%%%$$%;$+@.@O%o%%;@#$;X#-.$.@===*==&**  &  &&&  &                & & *&&**..+XX$X##OO#X@%$%;:::::;:;:::;:;;$O",
"%+@+@@O#$O%%:X;;:$%::#;:%+%+++@@$$%$@X-@.X.@o.o==$=X*&* *    *                    & &&  *&*&=*O.==.#=.+o$@@O%$::;::::;:%;;;$@..%",
"XXoO%O%$@%%%;;;$;%%-::;%%$+@@+#@.%;$X%$.OO@.-X..X=**=&&**   &  *   &              & &  & *&&&==*O=O.%X@$#.+@%O;;%:::::;;::%..X.-",
";;=X%%$%;$;-:%#::;%:O:%$%$+O++OXX+O-@oXoX.o-.-+=*.*=&&**  & &   &&                 &   &  *&. &**=+X#X@@o#@.@%+%-$;:;::;$$;-X.o.",
"%:%#@;%%$%%;;;:%;%%::%#;;$++$o+*$.o@@X.#XX.OX==$*=X*&*& * &   *                   & &     &*=&=%=..*X..@O+X$$.+X+X@;:O%O%+;$;$X%",
";;;%;@;o;%.%#;::::;%%:$%%o-#@..-+X-X.@O.XXXXX+=.XX**.&***    * &               &&  &&&  & & *&*$..==o-#X$+XXO=X@..+$#%-$$O;;:+%;",
":$%%$$$#%;$$#:@:$;@:%%;#$+@+.=XO=.=X.X++OXXO+...&X*=&**  & &   &          & &   +    &   &   &=*+**..*oX..XOo+X-$-@-O#@$$%;:;:%;",
"$+;o$%$%$$$@;;%%%$;;%%=$$O@oX@=X*#=@@.&*@X#=.=X.+&=&** **  & &             &  *&*==*   &    & =&*==*O.==XX@.#@X@#O@@+#;O:::;::%;",
":o;-%X@+@X$;%o::+%%;=%%;+#X.++.**=.=X.-*O$**=*=**=*.&*** && & && & &   &  && *&=.XO*=&     & &*&=& =*=.X=$$XXXX.--@X-%%:-;$;%:;;",
"::%;O+o..+O@;;;;;$%-$%+-.@.+**&*&..*=*=&&&*&*& =*&.&*&&&=&        &&    && &*&.*O.=**& &      **& *=*.=*@@.@@$XX+@@+%X%;:::;;:;:",
";::%;.XOX.$@=;:X:%$$%;.O.XXO.*.OX.*=&*&*     *&.&&&&&&&   &   *            *&&=X&*=@+@&    && & -  &@==.Xo@@@O$@O@$@@XX:$;:;%;::",
":;::%%=@Xo;-;%X;$+#%X+$XOXO..=.&.$= &    *&**&&&&*&&***          *       &  *&*X=%OXo+&&       & *&==@+X..$O@@.+#@@@O%%%%:;:$:;:",
":;;:;X*+o+%;:::;;%;%X+X@@-=O=.$X=X*=&*  *&&&&& *&&*&* * **&**  &  &  * &  *&&=*X=oXo@**          &*@$X.#.O%O-XXX+#@.+-X;%:;:;:;:",
";:;:::;%-:%;:;;%$%##@@.+.XOXOO==&*==&&&&==*.X%.&&&&  &  *&&==&*         &   &&&XX.@.X=&&&       &*@O@.X=.;$.+%=..=.====$%:;%%:;:",
":::::;:;;:%:X::;$%$O#+$@.X-*=Xo+.**&*=+=***++X%&+&&   **==**#&*  &&  = & && *&&=**O*=          *=.#%.%$;%%:::@::::::;::;:$:%;:;:",
"::;:::;:;:;;::;@%$O%$$X.X#XXX@XXX-.XX*.O&..@#+-$X@& *.&&&*O&.*& ** *  & &   *&&**==&& &       &**+@%-%O;:::::::::::::;::;$:+:;::",
":::::;;:;:#;;%;$;#-@=X.@.o.#oX@XoX..O+O==X@%@-#$Xo*&&&=&*=X@X@.=&*  *   & && *&&*&& *  *    &   *#.@X$O::;:;::;::%;::;:;;:;:;:::",
":;::::::::;;@$;#$$@@o@o+X@@XoX-@@%@$+X#@O+%%+%%%+%@O =*X++$-X@X$****&*   && & **&&*          & *XX.@$$:::;:;::;::;:::::::::%::::"
};
