/* XPM */
static char *_1e0d6f511ee4ff2fce51a8d1fd9c614behOrQ7ojWLfmHar[] = {
/* columns rows colors chars-per-pixel */
"128 128 24 1 ",
"  c #BD2D30",
". c #C74748",
"X c #BE6163",
"o c #AC3A3E",
"O c #AD4E52",
"+ c #8F262E",
"@ c #913940",
"# c #A15F64",
"$ c #977477",
"% c #751D27",
"& c #924A53",
"* c #5B1B24",
"= c #742E38",
"- c #71424F",
"; c #805C66",
": c #E2BDB3",
"> c #E39A8C",
", c #C98B81",
"< c #AA8A85",
"1 c #DB7870",
"2 c #B87671",
"3 c #D85C59",
"4 c #C7A09F",
"5 c None",
/* pixels */
"+++++++o@@@oo ++++%%*%%*%%%*%+++++%%%%+%++%%**%%**%**%%+++%%++%%%+++++++o+%+@OO&&&22XOO... o++%%@o%*%*@2&=@&;$,22@+  ++o++%%++%%",
"++++++++@oO. +++%%=%*%=%%%=%**%%%%%%%%%+%%+%%%=%%%*%*%%%%%%%++%%%*%%+@+++++%+oO33OXX...   +  ++@o+%%%%%%+@@@++=+%+ +++++++%%%+++",
"oo+ o+o..Oo +++%%%%%%%%%%%%%=+%%%%%%%%%++++%++%%+%***%%%%%%%%+=%**=%%++%%%%%+++o.      +++++++%%%%++%%%*%+++++%%% o+++++++%%+@&o",
"+++oooo+@+++++%+%%%%%%%%%%%%+=%+%%%%%%%%%+%%%+%%%**%****%%+%%%%%*%+=%*%+@++%%%+++ ++++%%%%+%%%%**%%+%%%**%%%+%%+++++++++++%++@@+",
"%+@++%%+%++++++++%%%%%**%%=++%%+%+%+%%+%+%%%*%*%***%%%%%+%%+%%%*%%%%%%*+++=+%*%oo+ ++++%++++%%%%%%%%%+%%**%%%%+%+++++++++++%+@+=",
"=@@+%%%++++++++++%%+%%**%%+%+%%%+++++=+++++++o++%+%%+  oo%*%+%%%*%%%%+%%%*%%%**%%%+%+%%%%%+%++%%%%%%%%+%%*%%*%%%%%+ ++++++oo+++%",
"+%=++%++%++o++++%%+%%%%**%%%%%%%%+%=+++%+ooo.oo+%++++++++%%%=+%*%%%%%%%%%%%**%%%%%+%%%+%%%%%%%%%%%%%%%%*%%%*%%%%%+++  ooooooo++@",
"o@+++%++%+++++o+%+%++++%*%%%++++%+++%+++o o.o..o+++  +  +%+%%%**=+++%+%%%%%%%%%+%%++%+++++%+%++++++++++%%%++%%%%++++ @@3.o+oo+oo",
"@o@+=+++ + +@ +%%+++++++%%++++++++++++  .ooo#2#Oo      ooo++==%%@=++%%%+++++@%%+===%%+%%+%%+++++@@&@@@@@@@@==@%%++  o.Oo@+++++o@",
"%%++++++o+++  ++o&@o@@@@=%%++++++o ooooo.OX,444$;OoooOooo@++++%%%+++%%+%%+++@=%%++%%%++++%%%%++@+=@+@@@@=@=%==++%+ o.O@+++++++++",
"%%+%%+++ o+  ++222#;-@=&,&%++%++ooooooOO2,,$--;<$#&OOo@o+o@@+++%%=+++%+++%%%=&-%****%%%++++%+%+oO&@@++@@==@=%%%+++ooOo@oo++ ++@+",
"@++@%+++++   @,4:::,$-=2:#+++@o&o..ooO2<$;-****;2###X@+ ++o+o@++%%%%*+ ++%%%%==%%*%%%%++%=%+++++o...+%@&=@=*%++++ o.o@XXO++++oo+",
"+++@+++o+++ O,4$;#,:422,4&O.OX2XX@@OX2$;-******-#;#&#o+++++@oOo=%+%%%%++++%%+%%%%*%*%%++++%%+o + +o+%%%@@=%%%++oo..O@=&-@O++@++%",
"+++%+++@=ooX,$**=**;4,<4>2XXX3X113#22;----**=***;#&--X.@@o++@&O+%=%%%%%++++%+%++%%**%%%+++++++  + ++++%%*%%%%=@oo.X=*=*-=X1@@O++",
"o++%%=oOOOX,---@+%**<4$,>XX1321X12#;$-*--**%%**@&&--;#1O@O@+@@@@+%+%+%+o++ ++=@+++*%% ++++++   o ..o+++==%**%+oOOX@=*---;&X1OO=+",
"@@+%+O,,222-*=@o@%=*-,,$22X3212XXX#-----=*=***=&&@=#$&&XXO==o@+@+++++@..   ++%==%+@++ + +     O.3333o@+++=%*%=OXO&**--;$$;=&XO==",
"O@@=@2,<<4&*=&-=+%%**#:##22212,,###&--;-****====-=@#$#==O&@@Oooo++%++%+@++++%*=%+@o+++    ...OX2#O2XXo+@+++====*=**---;<$;=*&&#O",
"2,>,2<,,:2=*-@===%***-><2##2,,<,$#$&---=*=%=*=*==@&##&=*-###ooo.o+%++++++ ++%%%*@o+%++@o...3X1>>#&#&OO++%+o+++%****--;-$;-**;#&2",
"&:::444:,=-@=**%*****&4<$2,22<<<$#&--&=******%%%=@#;$#&=&#;#oo.o.o%++++%+   +**%%=%%+ooo.O@=-;;<,2@@&@++++ooo+%%=**;;-=-====;#;;",
"#$:::4:4==@****%****=2<<$<,4<2#<<$-*%=***%%*=%*%=@;#2####;;#@oo.3o%+ +++  o  %%%%++++oOo=******;,2#@@@o+++ooo+%=*=;#=@@=***=##;$",
"$#<:::$=@@=****=****=#222#<<$2$$<#=**%**%%%=%**==&;$##2$$;2221&OO%=oo    ...o+%%%%    o%****----4>1O.oo++o....%**&&====**=*&,$$#",
"#2$<<,&*O@****=****=&2<2#2#2#2<<$&****%*%%*%%**=-#$22#$$$$$<,>>O=%OOOo o oo3. ++ ++ ..+%*--*--;-$:>>3.XXoo@O3.**=@===****=*#4<$$",
"<2<,>2*=@=***==**%*=&<4222<2$<,$$-**%%*%%*%%%%%=&$$$#2$$$$$$$2<##&XOXXo..o@o.      o.O%--**-*--*-::2O3>>11X@.+*=&=+%*******&,$$<",
"<<<<,@%=*****=****=2#$,<222,<,<<$;*%%*%%**%%%**-2$$2#$<<$$;;;;;-#@=*=O1XO@@O..     oO@=--***--***##@@>>1>>>2@**O&==********;$<$<",
"<<44$*%%*%***%****#&;<<22,,,,,<<$;=%*%%%**%%=**#$$$2#$$<$;;;------=**-<2#OXXX3.   +OO&&-****-****=#XO1:::>>,#**X=%%*******=#<<<<",
"$<<<$%%%%=*******;#=#,,<2,,<<<<$;&+%%%%**%++%*=$$$222<$$$;;;-**---***-<:,X#XX3.. ..O@==****;*****=111X>:>::22#@O=********=&#<<2<",
"<$$42***%*******-;=*O<,,2<,,<2<$$&%%%%***%+%**@$$2$<2<<;;;--***--=***-$4,#OOOXX133X#=****=--*****@2,112&=X:,,2&+********@==;<4,<",
"<$<<$-**=*******&-**&2>,<<<4<,<<$&%+%*%%%++=**&$$<<2<<<$$;--***-*****-;;&&22#22XX#&<-****--=****=&#,,,1XOX1122O%*****%**=*%-,>,,",
",<$<$;=********==**%%2>,,<<<44<<$;+%%%%*%+%%*%&<<2$<<<<<$-****--*****;$;O#2,2,,,2##<=***=&**%**=&@#>>211>>>2#1@%****%**==%*=<,,,",
"4<<<2$-=******==****%2<,,<<4<4<<<#=*%%%*%%%=*=#<<2$2<<<<$-**---*****=;2#OX2122,,,2#2**%%=**%%*=-==&,4,,11>>11O@*********=%*=,,2,",
",,2<$<;=******=*****%2,<,<<<<4<<<2===%%%%%*===#<2$2<2<<$;--**-=****=*&XooOX2X2,,,22$===%*****=-=*=&2,>>>,>,,1X%%******--%+*@>4,,",
",,,<$$;=*****=******=24,1<<<<4<44<O&=%*%%*====$<,<2<2<2$;-----*=***-==@o+oXX22,>>,<$-===*****@***%@11>>>,>>,2X+****=--2@+%%@4,4,",
"<,,2$$#=************=24>>,<4<<<<4<2@%*%+%%@=-&#<,<<2<2$;;;---**%**-@==o+ oXX122>>,<<&*=%****--**%=+2,1>>1>>>2O@****&*-;*+=%&,,,,",
",2<2$;$-*=**********@44,><<4<4<<4<-%%*%%%=&=&&$<<<<<2$$--;-=**%**--**@o++o32,222,,<4$=***=%=&***%+%2,,,1>>>,2X=**%@**-**%@%=<4,,",
",,222$;-%**%********@4:,,<<<<44<4$==%%=%%+@-&=$4<<,<<$;;;;;=****==***oo +@.11,222,,4&*%%%==&-=**%+%#,,>,1>>,<X=*%o=*-=****%=2,,,",
"2,2,<$$;=**%*********;::><<<4<<44;====%*%@@;&=&<<<<<<$;$$;;=***=&***%+ + +O11,,X2,4<-*=%==@--=%**+%#,,>>>>,,2#=%@+*--******=2,,,",
",,,<,<$#%*%*******%**-$:><$<44<4<-*@%=%%-&&;&*&<<<<<4<;;$;&==**&=**%%@o+++o1,,222,4,#=%%%+@&;=*=%%=2,2>>>>,><#@=+%*&=***%%*=,4,1",
"2,,,<<$&**%*%*****%**;;<:4<<<4<<$-*%=%**&#;;*%&<<<<<<;;;$;-=%=&-***%%++ ++oX,,112,4<#%%%+@&#;-*@%*%,>22>>>>><#&@%%=&****%%**<>,2",
"1,>,,<;=*%**%%******-$;-4:<<<44<;=**%=*-;O#&*%;<4<$<$;;$$;-=%=&-=%*%%+o++ +O,,21224,#=+%%+O2--#%%*=,>XX>:>>,22O+=*@&*%***=**2:>1",
",1,,<<#=%%%%%*******-<$;$44<444<;+%***=##@#=%+$<4<$$$$;$#;-%=@--=*%%%+o+ +oO,,,1,24<-+@@*@O#-$;*%%@2>2,11>>,2#O@%%@&**%*****@::>",
">1,2<<#%%%%*%***==%*-$$;$44<<:4$;=%*%=+=@==*%&$<4<$$$$<$--===@##-*=%%+o++  @1,,,,2$<&+@==@O&&2**%%O2,>,,2>>12X.+%*@&*%%****%%O:>",
">,,,<,#%%%=%%**&&*=**;$;$<<$<44;;-%%*%=*%+=%+#<<<<<<<<4;*-=%+O2;--@%%+o ++ @2,1,122$&+=@@O@=&=*%%%O2,>>1,>>>2X.+%%&@*******+%->:",
">>>>,<&%%+%=%*-#==%*-$$$;$<$<$$;;=%%%*%%=+%=+$<$$<<<<4;*--=*=O#--#*%%oooooo+X>,,,,22&%@o@+@@=*%%%@O2,>>>1>>>>2.+%%&=*%*****%+&2>",
">>>>4$@%+===-*;;*%***$$<;;<$<<;$#%%%%**=+%*=-4:2<$<<<;--;&=*@O&;2-*@+@oo+oo+X,>1>22$&@@=%+.+%%%%%++21>>>>>>:>1O=%+o********%%&2,",
",>>,<;%+%==*-;#=*****;$<$;$4<<;$-*%%%**%%%*=$<:4$-$4<--;;-*-&O=#@*%=@@oooooo2,>>122#O@+%=oo%%+%%+++X>,1>>>>:4,O%=o%********%+222",
",>4<<&++%==*;;=**%***;<$<$$<4;$<@%%%%%%***==;$<:<-;<;-$;;==-@==@**=%=oooooooX>>,1222O=+%@O++%%%%+o+&,,>>>>>>:>&%@+%%%*****%%=,,,",
">,,,4&%%*==##=***%***;<<<$$<4$<$%%+%%*%%**@--$;4:#;$$<<;-*-==@+**==%*+OoooooX,>>1,22X+@=o&+%+%%%+++O,,>>>>,>4>&%O=+%*=+***%*%,,,",
">,<4<=%%*=&&=********$;$<<<<$$<@%%%+=%%%*%@*;;;&::;;$;$$---===***%=%%oO.ooo+O>4,,1,,2o+o&@@=+%+=+ooO,>>>>>,>4>-=@=%*=;=***+%*22>",
",<<:$=%%=&&***%%*****$;;$<<$;$#=%%+==%%**%@*;;;-2:4$2$;;-;-=****--%++OOoooo@O>>>>11,2&@o@@@@%oO=&o+X>,>>>>144,&=&@%%O&***%=**&,>",
",<<<;*%+#&=*%*==*****$$$$$$$$<&%%%+@%%%%%%**-;-&&4:<<,--;;-**=&=#@%%o..oooo@X>4>>>,,,&@O=-&@-O&@#OoX>,,>>>:><<#&#=*.&*%%****%#2,",
"<,<;==*@#@%%%*%*****=#<2$$<<$<@%+%+@%*%**=**-;-=@$:4<<--;&-**&*-&*@+o.OooOooX>>>>>>1,2#@=@O&-$&OO@o11>>>>>::4<2#&@oO=%%%****=X2,",
"<44;==*&&%%**********;2$$2<$$<#%+%@%*%***%**-&-++@$44<;;$;==&**-**+++3.oooooO>:>>>1,>>$*@XO=&2&OO=.>>>>>::::4<#@OXO++==***%*=#2<",
"<,4--=*@+%**%*****%*=$$$$#$$$$#%%++%*****%%*=-=+ %&44$;<$&=@%*--*%=% 3.OOo.oo>:>>>>>>,$&2O%@1$-&O@1>,,1>>1#<4<O=@@+%%%%**%**=22,",
"$$-;---=***%%*@***%*=##$#;<$$$&%%%%*%***%%***=*+ %@$$$<4;-@=*--**%++ .3.OO.o@>::>>>>>4<2X@+OX;-Xo@1>>>>12O=#<2&*+@%%%=&**%**&22<",
"$;-;;--*%%=%*+=**%%*=#2$$#2<;;@++%*%*****%**=**%%%@;;$<<;-==*&%**%@+ 33Ooo.oo>:::>,>>4,2o+oo@#$X.O,>>>1XXOO#$#==@%%%+&;=***@2$<2",
"<$;-;;--O==%*@%*%**%=$$22,<$$;@@+%%+*****%**==****@$;$<$$-===@**%*++..3OO..oO>:::>>>4>,O+o.%=24OoX>>>,111X,,$;-#O+%*&#-==*%&<<,,",
"<#$;--;$#=-*=@***%%*=2$22<2$;=@@+*+=******%*=*%%%%&;;$<$;--*@&***%=+..3.o..oX>:::>:::>2@+.++@22O.244:>>>>124<##2#@%-#;-@==oO<4,4",
",$;;-;$$&#&==-**%*%*=$$22#$2&=o+%*+%********==%oOXX--<4$;;-==&%*%*=+O.O.O.3.O>::::::::O+o  +@O&XXO>::::>>X@-$<2$;#X32@@=&#;-<:4,",
",,$;$-;-&#-##=*=%%**=#$,,##2OOo%*%@******%**=%%3X2,;-$<<;-==@@**%*==.33.o 3OX::::::::4@oo&.oO+&12&,:::::>O#-#,2&$,1Oo++=&$$-$>>,",
">,<$;--*&-;>&*-&=*=*-$<22XX.O@+%*%+%********=*+O1>>$-;<$;-==@-*%%*%=O313o..3X>:::::::,@oO2O..@O>2@O,::::2XX#&X&;,,X@+++&$$;;$<,,",
":>42$$;--;,2=-&-=-=*;#,2233..+%%%%%%********-=%=X1:4;;$$---=&@****=@OX133..X1>:::::::Oo.O&O3.&&1@+&@#>:>2X22#--2,,O@++O$2<;;$24>",
":>4,$$<$=$,-*;;=-;-;;;2,11...o*%+++%*%******-=%%31,4<;<;---@@*****%=&X1333.X>>::::::2+ooo@X3@@2O@oOOX>,1,22<#=&24,#@@O22<$;;#<::",
"444<<<<&-<$--;--$$;$;-$2,13.. %+++%%%*******-%%%o>4,,,<;--;@%*%****%=O111113>>::::::O+ o@oOO@X1@+o1OO>,>>12,$=;<4<&@#2,<<;;;#4::",
":4,><<$--$&-#$-;<;$$;-$1,,1..o++%+%%%*******-=%+O$$2<4<;-;&@%%%*****%&1131>X1>:::::4&+o@O&@O21Xo@X2OO>:>>12,<--<4<$X,<<<<<$-#>:4",
"::,,<<$-&#-;#;-$$;<$;;#,,,2X3 +%%+%%********--=O2$$22<<$;;-=+%**@***%&X>11312>::::::&=O@OO&X,X+oO22.3:::>>>44;;<44$,,<<<<<$&@#>:",
">:>,4<<#;*-$;-;$;;$$;;#22,,X.. +%+%%********-$$$$$#2,<<;--#=%*=;=***++#>>1211>:::::,,#2X#1X2X&@OO22O3:::>>44<$#442#2<<$$$<;O@=,>",
",>,,,4<$--;$--$$-;;;-&#22,,,Oo++%+%%********;<$$;$O3,<<$-;&=%%O&***%=%o>4#X11>::::4,>4<$X,>>#&OX2<2..4::::::<<<<<;#,<<$$$$;O+@,>",
">,,>4<4$;;$$-;$-;$;;;;XX3,,2X. +@=%%%*******-;$;;#31<2<<;;&*%O&*%%***%%,:;&X>>4:::4>42X#&#2XX22&2,XXO<::::::4444##444<$$<#&&@@2>",
">>,>,<<<<<<;;$;-$<$;;22132,,2Oo+@@%%%*%*****;;-;2X122$$<2#=*@o+=%****%+&::2,4>::::::4O..#&X#2,##:,oXX#::::44<44,$44:<$$<$$#=OO24",
":>:4>:4$$<<<$$;;$$$;,>133X,,,2@oo@%%%@=*%%**-;-;11,$22$<$2-=@%=+=***%%@@<::4444:::::>..OXXX#XX#2:,o2X.>:::::<4<;$::4<<$<$$&=XX,4",
"::::::4;;$$$<$;4<;;$4>1113,>,2O+o===@=%*%***&;###22<22$<<#===%%%%***%*&O$::444:4:::>13oOXXX#XOX441X2,3>::44:44<;4::4<$$<$#&&X&<:",
":>::::4$;$$<4<<<$;;;<>>111222$&++=&&@*%%%%**#$$#2X&#$22<2-==@%*=&**%*=#XX::4>:444::X3ooOOX.XOO2>42O122,:::4,44$<::444<4<$&&Oo@#:",
"::::::4<$<$44$<$;;;;$:>111222#@++&X#==%%%***<$#22#&X##<2#**;&%%&;*%**&2XO4:44:44444O+oX1Oo..o&>>#O3122,>:::4:4224<4::4$$X&@@@+O:",
":>>::4<<<<44;$$;;$;$<>>1>1>>,&&@+X2#=%%%==--<$$2X#2,122<;=-$#*@&--=*+&2X&&4444:44:4oo..OOoo.oX>>OoX>,,,>:::::#,X-#$4:4<<#@Ooo O:",
":>1<:::<444$;<$;;$$$::>111>>2@@@@X#-+%=@=---$$#2212X>,2,;-;<#=&&-@==OO#XO#4:44:44:,Oo@oo.oo..X,1XO+3>,,>::::2O1OOOX#4444&@oo oO>",
"::124:4$4:<;$<;;$$$$4:>>1>>>2&@@O&=@++@==---$$#2XO##2,,,;-$<;&#@@=&##&OO#4:44:44,4>Ooo.o o...O2X.O%&112>:::4XXXXX&OX<44#@@o3.oo:",
":4>1,<;;44$$4$-;$;$$$4:>11>>,O@@@&X#=@@*@=---#21X#2>$2,4$$$$;&&++=&$$;&@1:44444,4>4oOOo....O3XX&OO=@1>,>1>:233XXXXoO24<##&o.3O&4",
"::>,,;-<<-;<<;--;;;<$4:>>1>:4#=@-@#&-&====#=-222X2,444,<2$$;;&@++&$###O@O::44:44>:>o ....3X33X#O&##@X1>>,>>X3.XXXXO&24<<,XO.2XX4",
"::>>>#-1X-;<2&--;;;$;>:>>>>::<=@@-@##&@@*@&*-2#11>>4444,$$$-;--+&22$;#Xo+2:44::4>>,o ...X3111XO&&#,O@X>>>:>13..#XXO@144<2,1oO1X>",
":::>,@&>&O,2&&-&#;$;-2:::>:::2@-@&&##&&*@#==##2>>,<<$$<4<$<$--&#X#2#&#XO+&:44:44::2 ..33311X2&&&-#22O&1>:4,13.OXXOOo#<22#XX@@Xo2",
"4::>X&12@XX&;--#--##&#>:>:::4O@@@@&#&;--X&*=#$#>:,;$$$<<22$$-;$$O##OO#X3O#444:44::2o 33111>1#&&2#&2,1##>::411.O11O3X&X22#X3@O.+X",
"::::O#2#&O&#X&2&=&;;;&,>1>::4&=@@=@&2--X&==-#22,>>$$<<$2X#,$$$<;OO@OX#OO>:244::4:>1o..3333>2##;#2#&22<<4:::>13O.1XX1XX1XXOX3@oo1",
":::,XXX&&&@&&XX&-#;$#O,>1,<<4#@@@+@@&###----2,<2<><$$<2..o#$<<$-OO@@OXO&#444:4::::>.o..331,2;;2$#2&=X14:::::,33oo3312X1XXo@.@oo1",
"::<#1XXXOOO@&X#@&2$#X@,:1>,>42-+@=+&&&#--&-&44,>>,<$$<Xo  o&;$-*X3@=@XX#;<4>::::::>.o.3331>2&;$2;2O+oX,::4::43Xo X111#XXXO@o@O@O",
"1,,2X12#&o&OX#&-&;#O@%2:>>>>,$-@@@@&&&-=--;;44,,<22$$$X    O&&==O1X@=o324:4>:::44:>...3331>2;$#$#-Oo+o3:41>:41Xo.111X#X2XXOooX#O",
"X111XXXOOoO##&&&#;&+++X>>>1>>#=@=@##&&-=@=;--<4,#$##$<#    oO@oO&OXO@+o24:44:::44>1..33.3>>2&$$#$&@ooo3,:11::13..113,X#XXX#O@X22",
"1111OoXO@oOO&&#2#&=+++1::>>>>,&=@@#2#&&&==&--;2222,2$$2.      .3X&#XO@o&4:44::44113.o.3.3112#;#;&OXO@.OX>1X4:23 3>1X,####22#=O22",
"24>X..@@ooOO&#2#&@++ +X:>::::4<@@@&##&&==O&-;##2,>><$<2o      .1,&&#XOOO2:4::::>>31XO.3.311&&#2#@@2XOX32>33::XX 31112####X1X#-&X",
"O4:X3.+oooooOOXX&++ ++X>:::>::,&=@##;&-=&O--#,,>>,,22$$#     .3>>#;##XOX2::4:444>113o...311O=&#2X@&2#X3,>114:>. .3X>22##X#X2,<OX",
"X,:23oOO+ooO&#1#+++ ooo2::>:::<@=@X2&--&&=@-;<4::,222#;13    33>2##&#OOXO444:44,>11.....311O=&2$X&@#2XX,>334::3  31>42#22&%O&&XX",
"2,4,1o.ooo.OO1X&o ++oooO::4>>:$=+@O#;&#2@*==#4::4:>,1O&13   ..11#&###&OOO2:444>>>,Xoo .3312@@@X,XO&@X,X,>1144,.  11>,$22X&=%+@2,",
"#>4>1O.@oO.OX1#O.o+o+@o&>:1,:::O+=&&&#2#@=*-;<4<;,:>>,,>33....311@@##OO11<:44::>>>3oo .331XO&@&2#2#@OX22>>44:,3 .1>><22##X#O +X,",
",>:>,.X1X@o.1#21O@+@@+@24>11>::#=++-&#;-O==--$4<2#2:>>:>11111331X==XX#O31>444:>>11.o+ 333>1&&=%@###O&X11>,,>,1.  1>,44###2#X.+=>",
">>44>..13+oXXXXXXo@+@@+X>1331>:$=++@&&&&=@O&-<:>,X2>>>441332X331O@@&XXO@@,4:>4>113o  . 331>&@@@=O#X2O.3>>121XX. .1>422;;#2##&O@o",
".4::,3.3O@oO#X##X.@@@o+&,11112>2=+@=@@&&--#;-<4>1,2<4>441o+.XX11#O&@OO.O&,>44:>13 ..  .31>,#@OOO@OX&X1OX111,XO.. 3>,##2#&###$#..",
".4::13.oO.OOOXXXXO@@@@+X>>1311,X=+@==&-=#&&;;<<>>,2<44>>3++ X11>O&@=&OO1>>444:>13 o  ..33>1##O@oo@O-O21,>4>>133. .22&&;2$&&#,2XX",
".X::41.oo3OXX#XXXO@&=%+O21111>1O+++@&&@&&&&&&$4,:>2<<:41    oX1>2@@@@OXO#444::13... o.331>2#&Oo@++O2222>>44>>..  3>1#--#2#&&2122",
"3,::,13.oXXO1XX#XOX&#&%@>>11111o+o@&#&&&@@@&=#4,>>$<44<.     .1>2&&OOOX1,,:::>2X3. o .31>:;#&#@oo@X22,2,4::4XX.  1>X&#&-;#&&-X21",
"34::413..OOXX2X#OX2##2&X>>1>111oo.&=&&#&&@=@=@<,,,<<<<#      31>##O@oOOX,>4:4,X1.3....31><#;22X@o@#,X1,1:::,133  3>X=&&-##;#&&#2",
"X4:::133.O.XOXXXXO@O#XXO1>>>1>X .3O&--O&@==&@-#>><4<4<O     ..1,#&OO@OOOX1>:,,13.3.  331>X####2#&OO#,11>:44,13. .3>,@@@&&&##2X#2",
"14<4>,O3.o .XOXXX@&==OO@X1>>>1X.3.o&2#&&&=&O@X,>4<:4<$#.    .3><;##O@.1XOO44>>XO.3  .3311O&2##$1OoX#211>444213.  3:>@=@-&&-#X@OX",
"1>4>:1X13o 3.OX1Xo&&=%XOX>>>213.. o&$4&&@&&&&&>>2$<<$$33   ..3,2;#2XOO1>1144:1.33..  .1>1#O###<2OoX>,,>,::>11..  1:>@o@=&X&@@@&O",
".>>>>41X3  33XX.&O&@O=@1,1>,,>1.   .&;#O-&@=@@X>,2<<$,3...  .3X#2##XX&O,>:4:13.33o ..31>,#&&&###Oo+O121444411.. .1>>#@O@=##=+o@O",
"o243X:,X3  .313XOO&@&&+3>>>>,,13 .3XOO##&#&+oOX1>1,24>1O.3.  3XO##;#23OXX14>1333.o. .3>:,&&&@@X#2OooX,244:>13O.  3>>#@O&@&O&@o@@",
"oX111>,X3 o.X11Xo##&@OO@,>>>,1>1331>#&X&$2&@@@2>1>>X,:>X..  .3OO&###XX3331>>X333 . .31::>&&OO=o#2Xo..1>::::113.. .>>#@&=&##OO&Oo",
"oX1314:,3...111X@&#2#OXO2>>>>11..3>:<&&=##O&O-&>:>,>,>>X.   .3X&O&#X#OXX3111X33.....3>::X@O&XO=O2,1331>4::41>X.. .>>O@#--#&@&&&.",
"321314:,3o.1121X@&###@O3,4:>>13  31>,#@@O&=@O@;4::>4:,Ooo..o...O&&oXX2XXXX,>>3.33..31>:,OOXO&OXoO21111<4:4,X3Oo  .>>O+#&-&#@@OOX",
"X2,>444<X..3111#;&#&#&@X2>:>133. .31X@o@O+++.O&44::4:>O33o.OO.o.OoOOX12X,,1>>3333..3>:1OOXOXX&#o@##OX1$44:,3XO.  3::O=&$;#XO=&XX",
"3,>:444<2..33>XO&###&2#&144:>13.3331@+oO&@o .X#<:44<4:3o3 @11OoOOOOOX2,>>>>>>1313.33::X&XX@OO1##O&O@o#$4:4233X.  3>>#+&#2#&OO@O3",
"3X44444<1. 31,1oO##O#O1X,,44>113331O=&X1#@oo1.=<:44<443.+++o33OoOOoO#X111>>>>13...31:>#@X2O@@OXOXoO.+@$4:423X3.  3>4#@@@##-OOO@.",
"X3>4<442X. .>>X+@&&OO&OX2,4:>>>331,=+XXO@XO.1X-24::4<433   +@..oOOOOXX1131>,133. 331:,#XX#XOo@OO.Xo. &<4::,O3X  .3>4&@@=@&$#&OOo",
"oX,4<<42Xo .1,+++&X&&@@X>4,>>>1>>>2-@XO=&#XXOO&<4::44<3 .  ..ooo@@OXX11X33>:>133...1>>XO#&XXo@oOX1O..X244>X..o+ .1>4@@&@@&$2##X.",
"3X,4444,O. .><@o+&OOOOoO2,14>4>4:42@=&@XXX1&@XX$4:4<4233    .oo&o@@OX1X.3X>>>>33 331:2OOOX2XO@+&XX1.O,>442O..@   1>4@@#;&@X###XX",
"232:4444,1o >4&oo@@OOXXO,>1>44>::4;%o&&XX2X&OX&24444413.3   o@O&#O@@XXX..3,>>>3.33.31X#OO&#2XOOOX##11,>:>,33.o  .1:1+@##&=+&OOX2",
"1124:44:,3 o>,&O&@@@OOXX4>1>,4444$&+Oo&&2#OOOOO&4444XO  .3 o@@O##;#@OXX3311>13333333O&O@@&##XXXX12X1>,4:4113.o  .1>X@@@#&&=+XX#X",
"3X4444<42. o>2OO&#&@&2X#,211>44>,2#@+@#2##&OO@O#$4:4Xo   3. @o&####XOX333>>13.333.13.++OOOX###XXX,,3X,444>333.  311Xo&&&&O#ooXX3",
"1,444<<$2. o>2&O####&OX1,111>:4>,,X@%X,#&#OOo@-O2444,33  33+OO@O##&XOOX3X1>11..33.31.ooooO####XoO2133,4::>13X + 3>>X@&&-@#2&=.31",
"11::4<<,X. O,#O&####XXO&O11>14:>1,2&@O&#22O@=&&&X444,3 . o.@Oo&&X&&&O#O311>>13333.31OoXO@OXOXXXO@31X>>4::>X1X  .1>>X@O&@@O22#@31",
"X14::<4>3. X,2O@O###2>424,3111,11>4&&O&&X#&@&O3.3X2#XOX1.oOO&@@&&#&&OXX11>>13133.31Xo@@XO+@OX2X3O.1,,4:::1X3.o .,::&-#&&&O#2,<11",
".>::44,333o1>,O&OX&&,>::::,O31,3O1,&O3O@&O@&O     33X#&#X3OO#O&@@@X##XX31>>11333311O@oOOXo+oOOXXX11>>4:4,213..O1>:>#&##OOO&X,<X ",
"3>:44:>3.3.1>2@@&&OOO1111>1o21,X.31OXX&;&&O.o      .O+@.XOo@OO@&O####2XX2>>>13331>3@ooO&X.ooo&OX3111>44::11.. .14:,&##&OOO#XXX3.",
"34>:441331.,:,X@@@O.oooo...31>>2O31XX##&-+ .  ++++  3O .  ooO&&@@OX####1,,>>133313oooo.#X3.o.X..XX12,,44>233 .11,,&&&#&@=&2,2X33",
"X,>>4,1331.,>,X@@@oo..+++@o@@2,,2&oO#&&@@oo+++%%%%% o..  ++o@@@O++oO###XXX11.3333+o .OOOOX3o.X.X33XX,>4:4,3. .322&=@&O&=<4:::4$#",
"2,11>1>111X,:2&@@+++oo+%++@&@@#2>2XXXOO.ooo+%%+%***++  +%%++++oo++++o@@O.O1Xo 31O+o..&#OXXXO..OX33.11>4,<,Ooo@&,,&-&@=&4:4<4::>#",
"#&#1>,>111O#:2&&@==%+++++%oOOX&#21X...   +++%oo+***%++++++++++@o+++++oOoooXO3.33oo oOOXOXOOOOOOo   .112&#:X+ @24,&&@=;44<,,&@###",
"==OO,>,,22##<2#OOO=%**%%%++o.3...     +++ +++++%++%%+ + .o++++++o+ooOOoooooO.31Xooooo@OOoOX@o..o     OX22<<O%o,42@=-;,2222o%%%+@",
"++o@@1,,,<2,$XX.o++%**%%%%+%++  +  +%++++%+%**%%++%+%%+++%%%%%%%+o@o+o@+oo@oo3OOXXo@OO@@@@@+o   +%%%+oX>>$44-=##=*;$1.@@@+%+%+++",
"%+++++O,,,#,XO o+++%*%%==%*%+o++++++%%%%+%%%***%%*%%%%%+++%*%%%%+@oo++++++++@@@@X2X&OO@@@o@Oo+%%+%%%%+@,<##4:4,$<42o +++++++++++"
};
