/* XPM */
static char *_fd74f8e1c644f5c96ac210750f9f3batuveKOVhpYpu4klt[] = {
/* columns rows colors chars-per-pixel */
"128 128 16 1 ",
"  c #DAA7A4",
". c #EEDFDE",
"X c #A96361",
"o c #C38380",
"O c #D12726",
"+ c #B22120",
"@ c #922020",
"# c #731F1F",
"$ c #591A1A",
"% c #AC3535",
"& c #D14343",
"* c #7D2C2C",
"= c #8B3938",
"- c #DA6363",
"; c #984B4A",
": c None",
/* pixels */
"::::::::::::::::::::::::::::::::::::::::::::::::::::::::**#@#@*=;:X:::::::::::::::::::::::::::::::::::::::::::::::::::::::::::::",
":::::::::::::::::::::::::::::::::::::::::::::::::::#############**;XoX;:::::::::::::::::::::::::::::::::::::::::::::::::::::::::",
"::::::::::::::::::::::::::::::::::::::::::::::::#####**#####@@@@*=;XoooX=*::::::::::::::::::::::::::::::::::::::::::::::::::::::",
":::::::::::::::::::::::::::::::::::::::::::::**#***=;=**@####*=====;;;;;===;::::::::::::::::::::::::::::::::::::::::::::::::::::",
"::::::::::::::::::::::::::::::::::::::::::===;=;=;;;=*@*###@#****=******####*====*::::::::::::::::::::::::::::::::::::::::::::::",
":::::::::::::::::::::::::::::::::::::::::==;;X;;;;=@@@####=;=##***##**==*#####****=XXo::::::::::::::::::::::::::::::::::::::::::",
":::::::::::::::::::::::::::::::::::::::@==;;;;;;=@@@*@@#*;XX=*#*#**##**==***=;;;====;;;=::::::::::::::::::::::::::::::::::::::::",
":::::::::::::::::::::::::::::::::::::*=*@@=;;==@@@@*##**;X;;=*######**==;;;;=;X;X;;;===*#*::::::::::::::::::::::::::::::::::::::",
"::::::::::::::::::::::::::::::::::::*=@#*===@@=========XXXX;;*****#**=;;XXX;=*====;;;;==***=*:::::::::::::::::::::::::::::::::::",
"::::::::::::::::::::::::::::::::::=**@*#*#@#;XX;;XXoXoooooooXX;;;====;;;;;;=*@@*=======*=*****::::::::::::::::::::::::::::::::::",
"::::::::::::::::::::::::::::::::==*=**##*=Xo  X;;XoXooo     oXoXo;;==;=;=***###@@@=@=*@#@*=******:::::::::::::::::::::::::::::::",
"::::::::::::::::::::::::::::::*###@*;;===XXooo;*=;;;==;Xo   X;;XXoX;====****@#@##*@***@#@*@###**#**:::::::::::::::::::::::::::::",
":::::::::::::::::::::::::::;*=*####;ooXXX=;*X;*#*=**$$*=;o  =*;oooX;*@*@=**@**###@#@*=@=#**@######*=*:::::::::::::::::::::::::::",
":::::::::::::::::::::::##*=#$$*###=XXo  oX==#*#*==***$$$=;X;*;XooX;#@#@###***@*=****@===;=;=@###***==*::::::::::::::::::::::::::",
":::::::::::::::::::::===;oXX*######*Xo oo%@@*@%=%=;=**$#****=;ooX*#@#@########**@====@==%X;X;=@#**==;;*:::::::::::::::::::::::::",
"::::::::::::::::::::*==;ooo;*#####@#*;XX=@@=%;;%;XX;===;;*##@X o;*##############***@**#@=;;XX;*@#*===;;*#:::::::::::::::::::::::",
":::::::::::::::::::#**=;XoX$#####@@#@==@@@@%;&;;XXoX%=;Xo=#@;oooo;##################***##@*=;;;@*@*==;;=*$::::::::::::::::::::::",
"::::::::::::::::::##*=;**;=#######@@@@+@@@+%%=&XXooX;%;Xo@@%X;   ;##@@@#@#@####@*=X;X;;@###*====*@@***;;**#:::::::::::::::::::::",
":::::::::::::::::##**;;***#######@@@@@@@@%%@%%;XXXoooXXo=@Xo%X  oX=@@@@@@@######=XXX;;=@@##@*******@*@*=;=#$#:::::::::::::::::::",
"::::::::::::::::*##*#;;*#######$#@@@@@+@@%%%%XX%=Xoo  oX@X o%    o;%@@@@@#@;===@=#*@=@@@=*#***@*#**=*@**===*$#::::::::::::::::::",
"::::::::::::::::*##*#;;*#=##*=###@%@@@@@+%%%%o-@%;o    %% .X%o.  o;%++@##@;XXXX;==@##@@;;;@*==**@*=@#@#@**==###:::::::::::::::::",
"::::::::::::::::*$=#*X=**##*;%##@+%@@+@@@%%%&X&%%%o ..XX . %%o  o;++@@@#@@=;XXXooX;%@#@@;*#@===@#@***#@###***#$#::::::::::::::::",
":::::::::::::::=$#**==**##@=X###@%;%+@@+%%&%&&%%@%;o. o...X++ooX%+++++@@@@@+@%XXXooX@@@@**###@@***@**##@@##**###::::::::::::::::",
":::::::::::::::;$=****#####==$$#@%X++++%%&%&&+++@++o o ...X%o&+++++++++++++@@+%%;&XX;@@@@@=*###*==*******@#####$#:::::::::::::::",
":::::::::::::::X$==**##$$$#;%##@+&-&+++%&+%&%++@+++XX ..    X++++%+++@+@+@+++@+%%%%X&;*@@%%;@###;X*##****#####$###::::::::::::::",
"::::::::::::::;;==;=####$$@%%#@@+X %++%O%O%O+++++++&o   .. o+++O+O++++@+@+@+++@+@@+%=%@@@*%;%#$$=X;*##**#**###$#$##:::::::::::::",
"::::::::::::::X===;*$###$$*%%@@@+o &OO&%O%O%O++++++%&o--o oO++&&+O+++++++@+++++@++@@@@@@#@=%X;@#*;oX######**#######:::::::::::::",
":::::::::::::=X**==#####$#@%%@@+%o O+%&&+OOO++++++O&o-&&O&+++&--O&OX&+++@+++%+%+%%+@@@@@@@@@;-;@@==X;$#####**#######::::::::::::",
":::::::::::::;=**@@####$##@&%@++O o%OOO&&OO++OO+OO&& -&O++++O  -&&%&-%++%++++%%%%%%+@@@@@@@@%;X%=@===#$$##@*@*######;:::::::::::",
"::::::::::::#=##*=@####$##@&%%++%-&O+O&%&&O+O+OO+&O-o-O++++Oo o-&OO&&%%--X%+%+++%%%+++@+@@@@@%X;%==**=*$$##***######=:::::::::::",
":::::::::::**X*@*@*#######%%;%+++&+O&&&&&OO++OOOO&O--&O+++-  --&&--%O&O&-&&-&%+++++%%%%%%%%@@%%X;%@=#==#$##**=***@#*=X::::::::::",
":::::::::::*=X##**@###$#@@+%&&%+&&O+O&&&&O++OOOO&OO--O++OOo- &-&+o-&--&%+%+%&%++%++%%%%%%%%@@%%XXX;@@#;;=$##*===****;X::::::::::",
"::::::::::;;;;##*@####$@@#%+%&%&%-&&OOOOOOOOOO+OO+O-OO+OO&O --o&O&-&%-&OO++++++&%%%&&&X-X%%@%@%;XX;%##=oX#$##*@**@#=;X::::::::::",
"::::::::::;XX*##*#@###$#@@+%O&%O%---&&O&&OOOO+O&OO&-OOO&--Oo&o oo--OOO++OO%+&%@%X+%;- oX%%@@@%=%XoX%*##=;=$$##**=*#=Xo;:::::::::",
":::::::::*XXX###@*@#@#$@#@@++O%++%--&O&&&OOO++&O+O&&OOO&  OO& -.   &--&&+O+%&&%%&@%&o oo;%@@%%%%;XXX*$$#;*$$$#*@==*#;oX:::::::::",
":::::::::;XX;###*=@@@#$@@@+++++++%--&&-OOO&++&OOO&-OOOO---OO--  ...-o o&&O+O%&%-%%+%;Xooo%%+%;;%%XoX;@$#**$$$$#*==*#=XX:::::::::",
"::::::::=XX*$##@@*@@@#$@@@@+++++OOOOOO&&OOO+O&OOO&OO-O&O&OO&- -&- --&-&Oo&+&%%%+++%@%%%o&;%=@@%%=;X;;*###=*$$$$*;=**#XX:::::::::",
"::::::::=;;*$$##@@*@@#$@@@@+O++OO+&&&O&&OO++OOOO&&O- -&O-OO&o-&O&O&OOOOOO++&&%&&++%+++@%%%;%@%%=%%;;=*$##*#$#$$#*;=*==;*::::::::",
":::::::==;X*$##@*@@%@##@@@+++O+OOO&  -&OO++OOOOO&O& .-O&--&&---OO-&OO+O+O++O++%+++%++@++%%%%%@@@@@*;=*####*#$#$$**===#=*::::::::",
":::::::**;;*$#@*@=@@@##@@@++O++OO- ..  &OOOO&O-&-O&. &&-o-&&o --&-OOOOO&%++++++%&%&%@+@@@@%+@@@@=@=;;**$##=;$$$#$**==**=::::::::",
"::::::#$;;;$**#@=@@@@@@@+++OOOOOo ..... OOO-& --&O-.--&-&--&o  &&-O+O+O%+++++++&%%%&+@@++;%@@@@@@@;X=*=*$#**$$$###*===*;::::::::",
"::::::$=;**$=**@;;@@@@@@++++OO- ........&OO  .  &&   -O&O --  -Oo&OOO++O+O+++@+%++%%+@+@%%%=@@@@@=XX;==;*$#*=$$$#***===;::::::::",
"::::::$;*$*$=*#*&;@@+@++++O+OOo......... &  .  ----  -&--  . . O&OOOOO++O++@++@+++++%+@@@%;%@@@@@;XX;**;=##X=$$$*$**=#X;::::::::",
":::::=;;$$$$;*#@X;@@+@++++OO+O-   ...... - .. -& -- .. ....... -OOOOO+O+O%+++@++%+++%%+%%%%%=@#@*=XX;**=***X*$$#$*=***X*::::::::",
":::::$X$$$$#;*#%X%%%@@+++O&+@@%----.....o&-  --& --.......... o&OOOO+++O+O+++++%+++++++@@@=%;%@#@;X;X*#*@#==$$$#$*;=$*=;X:::::::",
":::::$*$$$$$;*#@;%@%@@++OO&@#@+O    .... &O&&O-    ......... --OOOOOOO+O+O+++++%+@@+@@+%@@%@;%@*#*XX=@#**##*=#$$#*=;*$#Xo:::::::",
"::::$$$$$$$#**#=@=%%+@+++O@@@@+&  ...... &OOO ...--   -O-   o&O-OOOOOOOO+++++@@###@#@@@++@@%%@;@##;;;*#*###=X#$$#$*;*$$;;:::::::",
"::::$$$$$$$###@@%@@%@++O++@@@@+-........-OOOO.....-OOOOOOO---O- -OO+O+OOO++@@##$$$$$$$@@@@#*@=%%@=;;=@#@*$#=X#$$$**;=#*#=X::::::",
"::::$$$$$$$*###@@@+%%+OO++@+++Oo.......o&O-& ......OOOOOO&-------O+OOOOO+@@@##$$#######@@@####====;==*#*=*$#=$$#$$*;X$*$**::::::",
"::::$$$$$$*###@@=@@%+%O+O%+++O-....... -O- ........ O-&OOOOO&--OOOOOO+O+@@@@#@@@@@@##@#######$#@%;;=*###==##;#$$$#$*;;$#=#@:::::",
":::X$$$$$$****@=%@@+%&O+O%-&+& .. .... &&- .........   --&OOO-&OOO+OO++@@@+++++@@@#@@#@@@@@@#@@@;%;;*#$#=#$*=*#$#$$*=;##;*@:::::",
":::;$$$$$$***==%@@@%%&O+&oo&O&..-o....-&OOO...........- .-OO&O&OOOOO+@@@++++++++@@@@@@@@@#@@@@@=%=;==*####$#=;#$$$$$==#*;=#=::::",
":::X$$$$$$#**=%%@%%%&&+O-..-O&  -... o&OOOO-......... -----&OOOOOO++@@+++++++++++@@@@#@#@@@@@@@%=%====####$#=;*$$$$#**=*@;@=::::",
":::;$$$$$$$##*X;%%;X&&&- .. o&-&-. --OOOOOO-......... &OO&O- &OOO++@+++++++++++@@@@+@#@@@@@@@@@=%=@;;=##**=##=*#$$$##==*#==*::::",
":::$$$#$$$$$#*XX%XoXXXo. ...oOO&-  -&&------ ........&OOOOO -OOOO+@@@++++++++@++@@@@#@#@@@@@@@@@*@=XX=*#*X;$$=*$$$$*$=**@@=*::::",
"::;$$$$#$$$$#=%XXXX&&-  ....oOO&- . ............. . &OOOOOOOOOOOOO++@+@+++++@+@@@#@@#@#@@@@@@@@@##=  =;#; *$$**$$$$#**;=##@**:::",
"::=$$$$$$$$$;==;%X&%%X .....o&&o ..................-OOOOOOOOOOOOO&O+@#@@@@@@@@#@@###@#@@#@@@@@=###=oo;o$o;$$$$$$$$$$*$X*#@@*=:::",
":X*$$$$$$$$$=**@%%%+%&o .... o ................... &OO&OOOOO&&OO&OO+++@@+@@@@@@@@@@##@@@@@#@@@@#@#=XoXo$o#$$$$$$$$$$#*X#@*#@=@::",
":X$$$$$$$$$$$##*=%@@++o. .......-- ..... ........ -&&OOOOO&&&&OOOO+O+OO++++++++@+@@@#@@@@@@@@@#*@=;XXoXXX#$$$$$$$$$$$;*##@=#@=::",
":X$$$$$$$$$$$=##=@++++-  ..... -&- .....- ........-&OO&O&&&OOO+&&+OOO&&&O&-&OX++@@@@@##@@@@@@#***Xooo Xo=*$#$*$$$$$$$;**@==@@;::",
":;$$$$$$$$$$$=#@@%%%++o  oo .oO& .......--.....   -O&- --OOOO-o  o -&&O&&&X%X-&=@@#@@#@@@@@%#$##=o    o;*##**=$$$$$$*;=*@@;=#;::",
":=$$$$$$$$$$$=*#@@%%+-  -&-oo+O-...  - --..... &&O--- ..-OO&o......  -&&%-O++%;@@@@@@@#@@@;%#$$$;o    oX*#=$*;*$#$#$*;;=@*;;@;;:",
":**$$$$$$$$$$**@@@@+% o&&- . -O&&o&-OOOO-.... &OOOO-    -OOO . o-o     o--+&%+++@@+@@@@##@%=$$$*=Xo   o;$#*$*;=*###$$XX==@;X=;=:",
":$#$$$$$$$$$$#*;%@@@;-%+- .... OOOOO++++-...&OOOOOO&-   -OOO-o-&++&&-o  o&&-%++++++@@+@@#@*$$$$=*=Xooo =$$$$$;;**#*#*XX==@=X=X=:",
":**$$$$$$$$$$$=;;%@@+++o ...... &OO+++++&o  OO&&&OOOOO-  -&&   o++++++&%-oX%+++++@+@+@@+@$$$$$$#$$;;;X ;$$$$$==***;==oX=@@=X;;*:",
":*$$$$$$$$$$$$#*;%%@+X  X.......o&O++@++OO-OOOO&OOOO+O&&oo-- ..  &@+@+@+@%-&++@++@@@++@@@$$$$$$$$$=*=Xoo=*$$$**$*=XX;oX=@@=X;;#:",
"**$$$$$$$$$$$$$$**@@+  %&  .... &&++@OO+OOOOOOOOOOOO&-O&&&-O-o..  X+@+@@@@o-;&+@@@@@@@+@@$$$$$$$#$*$$*oo$;*$#$*$$*Xo=oX**@@X;*#:",
"**$$$$$$$$$$$$$$$$*%@%%+&%  . &&&&O+Oo-&OOO&&OOOOOOO-&&&OO+OO-o .  -%+@@@X ooo;+#@#@@+@@@$$$$$$*;X$$$$oX*X=**$$$$*oX*o;#@@*;;##:",
"=*$$$$$$$$$$$$$$$$;@#++++Oo..&OOOOOO&-&OOOOOOOOOOOO&&OOOOOOO+OO&-oooo&%&%&%&%%%@#$#$$@@%@#$$$$#;oX$$$=o$;oX;$$$$$Xo;*X;#@@@;;##:",
"#*$$$$$$$$$$$$$$$=;@@%%++%-o-%O+OO&OOOOOOOOOOOOOOOO&-&OO+O+OO+O+O&&&-X&%%++@@@@##@##$#@X%*$$$$;oo;$$**X$X o=$$$*=oo*$X=#*@*;;###",
"*=$*$$$$$$$$$$$$$;%@@;%@++%-&&&O&OOOOOOOOOOOOOOOOOOO&-o-&+O+++++++O%O%&&%+@+@@@#@@@##@%XX*$$$*;oo**=$;;$ooX*$**=X o===*##@@;=###",
"=*$*$$$$$$$$$$$$$*;@@@%+@+%X--&-OOOOOOOOOOO+OOOOOOOOOOo &%OO++++++++%%&%%%+%+X=#@++@@#=oo;$$=;XX;$*=$;*;oX;*;*XX  X;=$**#@#;=##:",
"=$$$$*$$$$$$$$$$#o;%@@+@+%X-X-&&OOOOOO+O+++++++++OOOO&-o&%+%++++@@@@++++%++%%%#@@@@%@#;oo;*;;XXX**;**#*XoX;==;o  oXX*#=*#@#=*##:",
"***$$*$$$$$$$$###=;@@%%+%%-o&%&%+++O+OO+O++++++O+%&-&&&&o-%+@@@#@#@@@@@@@@+%+%@@@+@@#@X o==XXXo;*;X=***oXo===X   oXX;#;##@#*###:",
"***$$$*$$$######$*;#@;;%%Xoo;%%&%+@@++++++++++++++%-X&&&-ooX+@@@###@%@@@##@@+@+@@@@@@;ooo==XoXo;;XX=*$=ooX*=$o   X;XX==##@#####:",
"#=*$$*$*$$$$#$$$$##@#=;=%XooX++%&%+@@++++++++++@++@+%%&-&-oo-&@@@@###@@###@#@@@@%=@@%o oX@=;XooXoX;*$*XXX=**$XooX;;XX==#####@#*:",
":*$$$$*$$$$$#$#$$$#*##*@;Xoo;+%+%%%+@+++@+@++++@+@@@@@%++%-ooo-%@#@#@#@@#@##@@@@%@@@%o oX*@;o  oXX;#$;X;=**#*XXo;;*;;*=#@#####@:",
":#*$$$$**$$$##$###**@##@%XX;%+@++&&%+++@@@@@@+@++++@@@@@@+%+&Xoo%%@@%+@@@####@@@@@@@%o  X;=Xo  o=X=$$X*=***$$;oo;*#***;##@@###::",
":***$$$$$$$$$**#***=@$#*=;%%@+@@@%%%++%+@$###@@+@++++@#@###@@%XXoXooo-X@@@@#@##@@@@@=Xoo XXo   X=;#$$;$=*##$#;oX=##*#=;#@#@@#@::",
"::*$$$$*#$$$$#***#*;;#$*;X;%@+@+@@%;%%%++@#$####@+@@+@+@@#$##@@+%XXooX=@##@@######@@@=Xo oXo  X*==$$*#*X###$*=X;=##*#;*#@@###@::",
"::$*###$$#$$$$$#$$#=X=##;Xo;%%%@+@%%%%@+++@@#$$$$##@@@@@@###$@@+@@%%=%####@@@#@###@#@#@XoXX  X;*$$$$*$X;=##$*===*#*=#X@@@*##@:::",
":::$*$*#**##$$$##$#*=;*#@XoX=%%%@+=%+@@@@+++@@##$$#$######$$$$@++@@@@@@#@###@@@@########;;X o;*$*#$*#;o==###*==*##=**;@@==##=:::",
":::==**$$***#*$$#####=*#@=XX%=%=@=%;%@@@@%@+@@@@@##@###$#$###$##@@@@@@@@@@@###@@@@######@*;X;$$$#$#*$X=;**$*=;=*##*#=;@=;=#*X:::",
"::::*;$$***==**$#$$###**#*%XX;=%=@%%;%%@@@%=@+@@@@@@@@@@@@@@##@#@##@####@#@@#@#@@@@@###@###*$$##$#*#=;*=###=;===*#@#;@*Xo;*X::::",
"::::===**$*=;;**$$#**#*=**=%;;%*@@@=Xo;@@@%%=@;@#@#@@@@@@@@@#@#@@#@#*####@#@#@#####@#@########*#$#*#X**##**==;;=*@#*;@XooXXo::::",
"::::$==*$$$$=;;;*$#**#*=;=*=;;=@@*@@;XXX=@*%@%=@#####@####@#####@@@=@*@@#$$####*$$#*=#@#####$###$##;;$##$=**==;;**=@;;o ooo:::::",
"::::$*=;=#$$$*X;=*$$#*$*;X=*=;;@#@==;Xoo;=@@@@@@#@##@#@#@##@###=@=@@##@@@####*;;*$$****==####$###$*X*##$$==**;X;@;=*;X  oX::::::",
":::::$***$#$*=;==*##***$*;=##=;=@*@=%;XX;;=**@=@@@@#########@#@#*@*@##*=%@*=XX=;;===*$*===#$$$#$*$;X###$#==**;X;*;#=;XoXX;::::::",
":::::;*=*=$#*******$**$$#**$$$=**###@@@=%=@@=%*==@@##@*####@#@#*****@#@*===XooXX;XooX*$#*##$$$###*X*$**$#;;#=XX===#==X;;;:::::::",
"::::::=*==*$#******$$####*=*#$#==*#####@=@*@==*=@=@@@@#@#@###@@*=;;;;=###@*=XXoo   oX#$$$#####$#$X;#**$$*X=#*;X==##=;===::::::::",
":::::::$$*=*#$****#####$$****#$#=*######@*==*@#*=@##@=@@####**#=;XXooX;@$##$*Xoooo  X$$$$*==#$$#*X*$#*$#Xo##=;;=##*X;=@:::::::::",
"::::::::****###$$$###*###$###*###**##*@##*@=@@#@**@@@@==@@@@#*#==XXXoooX;;*#*XXooXooX*$$$=X;#$#$;;$$**$;o;$##===##;X=:::::::::::",
":::::::::*=*=*$$#$$$##***#######$*####==*##@*@@@***##@@=;==;=##**=*=;;XXoooX=;XoXXXoX*$$#;X*$##*;***=**o =$@#=;=$*X=::::::::::::",
"::::::::::;=**=#$$#$$$##*######$$*=*#$*;;=##@*@*@#@==*=@@@=XX=**=**$=#**=Xoo=*;ooXXoX;#$*;;$$$#==***;$;Xo##*@;X*#;;:::::::::::::",
":::::::::::X=****$$$$$$$#########$**###=X;=*####@#*===*==@=;;X;===###**#$*;***=;;X;*$**#**$$$*$****==$;XX$**=XX#=X::::::::::::::",
":::::::::::;X=*$**##$###$#$#########****=;X;=*#@######@==*=**=;;=*#$#$###===**@#**#$$$$$*$$$$$**$===##*;*#==;X=#;:::::::::::::::",
"::::::::::::XX;$$**##$#**###$#######*=;*==;X;=#########*==*=##=;***#*=$#*=;;*@***===*$$$$$$$$$#$*;=;$**=#*==;;@*::::::::::::::::",
":::::::::::::;;;$$***#$**=****#######**;;=*=;;=*######$#=**=**=*==**==*#*==*##**=;;;=*$$$$$$$#$$=*=*#;=***=;;;**::::::::::::::::",
":::::::::::::=*X;#$$$*#$**=;===*###$#$$*$*$$*=;==#########@**;;;;;=**######$###***=;*$$$$$$$#$*=;*=#XX;=**=;;==:::::::::::::::::",
"::::::::::::::=;X=*##$$#$$*=;;;;=***##$$$$$#$$*=*#$$$######@*===***#$$$$$#*#*$#$$$$#$$$$$$$$$$*;$*#; XX##*=;==X:::::::::::::::::",
":::::::::::::::=o;=***$*$#$**;;;;;;==**$$$##$$$$$#$$############$$$$$$$$$**#$$$$$$$$$$$$$$$$$*;**#*ooo=##@===X::::::::::::::::::",
":::::::::::::::XXX;==***#**#$$**===;;;=*#$####$#$######@*#**##$##**##$##==#$$$#$$$$$$$$$$$$$#==**#;oXX#*#*;*=o::::::::::::::::::",
"::::::::::::::::$***;=*#**#**#$$*$*$**$*$#$#$#$#$$#$###**;;XX;=*;XXX=#*==*###*$$$$$$$$$$$$$#****#=X;X=*@#==#;:::::::::::::::::::",
":::::::::::::::::$***#$##$**##**==;=*$$$$$#$#$#$#$$#$$$$*;oooo;**XooX;=;**#$*$$$$$$$$$$$$$###*###=*=X=*#*;##::::::::::::::::::::",
"::::::::::::::::::#$$*##$*****#*=;;=*$#$$$$#$#$$#####$#$$=X oo=#=o   oX=*#$$$$$$$$$$$$$$$#****##*#$;**##=*#*::::::::::::::::::::",
":::::::::::::::::::o#**=*##**=*******$#####$$$#$$######$$*XXoX==o oXX;;$$$$$$$$$$$$$$$$$#**=**##$$==###*=#*:::::::::::::::::::::",
"::::::::::::::::::::X;$*;=*$****#*=====****#$###$$####====XXX;==X;*$$$$$$$$$$$$$$$$$$$$#***#####$######**#::::::::::::::::::::::",
":::::::::::::::::::::o;$*===*$$$**=;;X;;=******$#####*=XXoXoX=*#$$$$$$$$$$$$$$$$$$$$$$#*#*##$$##*######*#:::::::::::::::::::::::",
":::::::::::::::::::::: ;$@@==*##$**;;;XX;=**#****######=X;X;=**$$$$$$$$$$$$$$$$$$$$$$$##**$$####*##*##**::::::::::::::::::::::::",
":::::::::::::::::::::::X*#@#@=;*#$*==;;;;;=*###*=**#$$$$$#$$$*$$$$$$$$$$$$$$$$$$$$$$###**$#####*#*=*##**::::::::::::::::::::::::",
"::::::::::::::::::::::::X@@@#@@@=*#*=;;;;=**#*###**#*##$$$$$#$$$$$$$$$$$$$$$$$$$$$#########$#**@*==##**:::::::::::::::::::::::::",
":::::::::::::::::::::::: ;#@@@@#@***#=;;;;=*#*#####**=***$######$$$$$$$$$$$$$#$##***#####$$##*#*=;=##*::::::::::::::::::::::::::",
":::::::::::::::::::::::::oX#@@#@@##**=;=;;X==@*@######*****##**##########$##***#***######$##*##=;;**;=::::::::::::::::::::::::::",
":::::::::::::::::::::::::: X*@@@######==;;;;X=====*@#***==***##$#$####**##*#***####*#==$##*##*;X;*;;=:::::::::::::::::::::::::::",
"::::::::::::::::::::::::::::X==@@@#$##@@;;;;=;%;%;===*****=**#*#$#$####**###***##***;=######*;;;;;=*::::::::::::::::::::::::::::",
":::::::::::::::::::::::::::::;%=@##$###@#@==;====;%;=*@#@**==;;;;=**====**#***#@====#$$####=;;===**:::::::::::::::::::::::::::::",
"::::::::::::::::::::::::::::::;;;@##*@=*#***==****;;=@*##@*#**=;;;=;=;=****=@**;;;=$$####*=;=*###:::::::::::::::::::::::::::::::",
":::::::::::::::::::::::::::::::;;=*=;%=@;===@=@#@@*#*=*=***@####***#*#*#**@*=*;=*#$######===#$##::::::::::::::::::::::::::::::::",
"::::::::::::::::::::::::::::::::;X;;@=@========@==@;;X;;;;=**#*######*#*****#*#######$$$***$##$:::::::::::::::::::::::::::::::::",
":::::::::::::::::::::::::::::::::::;;#=#@@@*@@*===;==@===%=****===#;=*=#*#***@#@#@@#####$#$###::::::::::::::::::::::::::::::::::",
"::::::::::::::::::::::::::::::::::::;@;=@#@#@@@=@==%@@@@@=@@*@*=*=;XoX=*=XXXXX;==###########::::::::::::::::::::::::::::::::::::",
":::::::::::::::::::::::::::::::::::::::XX@*@@@@@=@@==@*@@@=@==;X*#*;XX;=XX   oX=##########::::::::::::::::::::::::::::::::::::::",
"::::::::::::::::::::::::::::::::::::::::X@;;@==%;@;;=;===;;%;;=*=;;=*=*==XoooX;##$#####:::::::::::::::::::::::::::::::::::::::::",
":::::::::::::::::::::::::::::::::::::::::::;#;@XXXX;XX%X;;%;;=;X :::::=*==XXoXX;==@#@:::::::::::::::::::::::::::::::::::::::::::",
"::::::::::::::::::::::::::::::::::::::::::::*:*X;X;X;=;;=%=X;o:::::::::::::::oo:::::::::::::::::::::::::::::::::::::::::::::::::",
"::::::::::::::::::::::::::::::::::::::::::::::::::*#@X;@::::::::::::::::::::::::::::::::::::::::::::::::::::::::::::::::::::::::",
"::::::::::::::::::::::::::::::::::::::::::::::::::::::::::::::::::::::::::::::::::::::::::::::::::::::::::::::::::::::::::::::::",
"::::::::::::::::::::::::::::::::::::::::::::::::::::::::::::::::::::::::::::::::::::::::::::::::::::::::::::::::::::::::::::::::"
};
